<svg width="124" height="97" viewBox="0 0 124 97" fill="none" xmlns="http://www.w3.org/2000/svg">
<path d="M8.57105 4.10939L9.0464 2.6867L8.57105 4.10939ZM114.765 89.0972L116.049 88.3216L116.049 88.3216L114.765 89.0972ZM117.983 96.4751C118.787 96.6736 119.6 96.1826 119.798 95.3783L123.034 82.2717C123.232 81.4674 122.741 80.6544 121.937 80.4559C121.133 80.2574 120.32 80.7484 120.121 81.5527L117.245 93.2031L105.595 90.3273C104.791 90.1288 103.978 90.6199 103.779 91.4242C103.581 92.2284 104.072 93.0414 104.876 93.2399L117.983 96.4751ZM0.524819 3.00249L8.0957 5.53207L9.0464 2.6867L1.47552 0.157112L0.524819 3.00249ZM113.481 89.8728L117.058 95.7944L119.626 94.2432L116.049 88.3216L113.481 89.8728ZM8.0957 5.53207C52.1232 20.2426 89.4798 50.1393 113.481 89.8728L116.049 88.3216C91.6794 47.9784 53.7495 17.6229 9.0464 2.6867L8.0957 5.53207Z" fill="#6864AE"/>
</svg>
