<svg width="108" height="104" viewBox="0 0 108 104" fill="none" xmlns="http://www.w3.org/2000/svg">
<path d="M94.3452 9.61039L95.1215 10.8939L94.3452 9.61039ZM13.0662 89.4911L11.7964 88.6927L13.0662 89.4911ZM3.43859 102.811C3.6227 103.619 4.42673 104.124 5.23444 103.94L18.3968 100.94C19.2045 100.756 19.7101 99.9517 19.526 99.144C19.3418 98.3363 18.5378 97.8308 17.7301 98.0149L6.03021 100.682L3.36332 88.9819C3.17921 88.1742 2.37518 87.6686 1.56747 87.8527C0.759764 88.0369 0.254236 88.8409 0.438346 89.6486L3.43859 102.811ZM106.022 0.795339L93.5689 8.32688L95.1215 10.8939L107.575 3.36238L106.022 0.795339ZM11.7964 88.6927L3.63122 101.679L6.17094 103.276L14.3361 90.2895L11.7964 88.6927ZM93.5689 8.32688C60.4197 28.3752 32.4169 55.8963 11.7964 88.6927L14.3361 90.2895C34.7077 57.889 62.3724 30.7002 95.1215 10.8939L93.5689 8.32688Z" fill="#6864AE"/>
</svg>
