<svg width="258" height="204" viewBox="0 0 258 204" fill="none" xmlns="http://www.w3.org/2000/svg">
<path d="M3.66797 13.7383L10.6699 2.78125H12.5547V17H10.6699V6.0332L3.66797 17H1.79297V2.78125H3.66797V13.7383ZM21.7246 10.916V12.3906H16.1094V10.916H21.7246ZM17.6816 6.43359V17H15.875V6.43359H17.6816ZM20.1816 11.834V11.6094C20.1816 10.8477 20.2923 10.1413 20.5137 9.49023C20.735 8.83268 21.054 8.26302 21.4707 7.78125C21.8939 7.29297 22.3984 6.91536 22.9844 6.64844C23.5768 6.375 24.2409 6.23828 24.9766 6.23828C25.7253 6.23828 26.3958 6.375 26.9883 6.64844C27.5807 6.91536 28.0853 7.29297 28.502 7.78125C28.9251 8.26302 29.2474 8.83268 29.4688 9.49023C29.6901 10.1413 29.8008 10.8477 29.8008 11.6094V11.834C29.8008 12.5957 29.6901 13.3021 29.4688 13.9531C29.2474 14.6042 28.9284 15.1738 28.5117 15.6621C28.0951 16.1439 27.5905 16.5215 26.998 16.7949C26.4056 17.0618 25.7383 17.1953 24.9961 17.1953C24.2539 17.1953 23.5866 17.0618 22.9941 16.7949C22.4017 16.5215 21.8939 16.1439 21.4707 15.6621C21.054 15.1738 20.735 14.6042 20.5137 13.9531C20.2923 13.3021 20.1816 12.5957 20.1816 11.834ZM21.998 11.6094V11.834C21.998 12.3613 22.0599 12.8594 22.1836 13.3281C22.3073 13.7904 22.4928 14.2005 22.7402 14.5586C22.9941 14.9167 23.3066 15.1999 23.6777 15.4082C24.0553 15.61 24.4948 15.7109 24.9961 15.7109C25.4974 15.7109 25.9336 15.61 26.3047 15.4082C26.6823 15.1999 26.9948 14.9167 27.2422 14.5586C27.4896 14.2005 27.6751 13.7904 27.7988 13.3281C27.929 12.8594 27.9941 12.3613 27.9941 11.834V11.6094C27.9941 11.0885 27.929 10.597 27.7988 10.1348C27.6751 9.66602 27.4863 9.2526 27.2324 8.89453C26.985 8.52995 26.6725 8.24349 26.2949 8.03516C25.9173 7.82682 25.4779 7.72266 24.9766 7.72266C24.4818 7.72266 24.0488 7.82682 23.6777 8.03516C23.3066 8.24349 22.9941 8.52995 22.7402 8.89453C22.4928 9.2526 22.3073 9.66602 22.1836 10.1348C22.0599 10.597 21.998 11.0885 21.998 11.6094ZM38.9609 6.43359V7.92773H33.8535V6.43359H38.9609ZM40.5527 6.43359V17H38.7461V6.43359H40.5527ZM33.4141 6.43359H35.2305L34.957 11.5312C34.9115 12.319 34.8366 13.0156 34.7324 13.6211C34.6348 14.2201 34.498 14.7344 34.3223 15.1641C34.153 15.5938 33.9382 15.9453 33.6777 16.2188C33.4238 16.4857 33.1178 16.6842 32.7598 16.8145C32.4017 16.9382 31.9883 17 31.5195 17H30.9531V15.4082L31.3438 15.3789C31.6237 15.3594 31.8613 15.2943 32.0566 15.1836C32.2585 15.0729 32.4277 14.9102 32.5645 14.6953C32.7012 14.474 32.8118 14.1908 32.8965 13.8457C32.9876 13.5007 33.056 13.0905 33.1016 12.6152C33.1536 12.14 33.1927 11.5866 33.2188 10.9551L33.4141 6.43359ZM44.9473 10.0664H48.1211C48.974 10.0664 49.6934 10.2161 50.2793 10.5156C50.8652 10.8086 51.3079 11.2155 51.6074 11.7363C51.9134 12.2507 52.0664 12.8366 52.0664 13.4941C52.0664 13.9824 51.9818 14.4414 51.8125 14.8711C51.6432 15.2943 51.3893 15.6654 51.0508 15.9844C50.7188 16.3034 50.3053 16.554 49.8105 16.7363C49.3223 16.9121 48.7591 17 48.1211 17H43.6289V6.43359H45.4355V15.5156H48.1211C48.6419 15.5156 49.0586 15.4212 49.3711 15.2324C49.6836 15.0436 49.9082 14.7995 50.0449 14.5C50.1816 14.2005 50.25 13.888 50.25 13.5625C50.25 13.2435 50.1816 12.931 50.0449 12.625C49.9082 12.319 49.6836 12.0651 49.3711 11.8633C49.0586 11.6549 48.6419 11.5508 48.1211 11.5508H44.9473V10.0664Z" fill="#292626"/>
<path d="M8.875 39.4336V40.9277H3.5332V39.4336H8.875ZM3.79688 39.4336V50H1.99023V39.4336H3.79688ZM10.4766 39.4336V50H8.66016V39.4336H10.4766ZM20.5449 44.0137V45.4785H14.959V44.0137H20.5449ZM15.3398 39.4336V50H13.5332V39.4336H15.3398ZM22.0098 39.4336V50H20.1934V39.4336H22.0098Z" fill="#292626"/>
<path d="M10.748 78.5156V80H1.44141V78.7012L6.09961 73.5156C6.67253 72.8776 7.11523 72.3372 7.42773 71.8945C7.74674 71.4453 7.9681 71.0449 8.0918 70.6934C8.22201 70.3353 8.28711 69.9707 8.28711 69.5996C8.28711 69.1309 8.18945 68.7077 7.99414 68.3301C7.80534 67.946 7.52539 67.64 7.1543 67.4121C6.7832 67.1842 6.33398 67.0703 5.80664 67.0703C5.17513 67.0703 4.64779 67.194 4.22461 67.4414C3.80794 67.6823 3.49544 68.0208 3.28711 68.457C3.07878 68.8932 2.97461 69.3945 2.97461 69.9609H1.16797C1.16797 69.1602 1.34375 68.4277 1.69531 67.7637C2.04688 67.0996 2.56771 66.5723 3.25781 66.1816C3.94792 65.7845 4.79753 65.5859 5.80664 65.5859C6.70508 65.5859 7.47331 65.7454 8.11133 66.0645C8.74935 66.377 9.23763 66.8197 9.57617 67.3926C9.92122 67.959 10.0938 68.623 10.0938 69.3848C10.0938 69.8014 10.0221 70.2246 9.87891 70.6543C9.74219 71.0775 9.55013 71.5007 9.30273 71.9238C9.06185 72.347 8.77865 72.7637 8.45312 73.1738C8.13411 73.584 7.79232 73.9876 7.42773 74.3848L3.61914 78.5156H10.748ZM21.8711 65.7812V66.7969L15.9824 80H14.0781L19.957 67.2656H12.2617V65.7812H21.8711Z" fill="#9A9797"/>
<path d="M15.166 105.215V106.699H4.89258V105.635L11.2598 95.7812H12.7344L11.1523 98.6328L6.94336 105.215H15.166ZM13.1836 95.7812V110H11.377V95.7812H13.1836Z" fill="#292626"/>
<path d="M7.36914 125.703V140H5.5625V127.959L1.91992 129.287V127.656L7.08594 125.703H7.36914ZM18.6191 125.703V140H16.8125V127.959L13.1699 129.287V127.656L18.3359 125.703H18.6191Z" fill="#292626"/>
<path d="M47.3594 45.3516H43.8926L43.873 43.9062H46.7051C47.265 43.9062 47.7305 43.8509 48.1016 43.7402C48.4792 43.6296 48.7624 43.4635 48.9512 43.2422C49.14 43.0208 49.2344 42.7474 49.2344 42.4219C49.2344 42.168 49.179 41.9466 49.0684 41.7578C48.9642 41.5625 48.8047 41.403 48.5898 41.2793C48.375 41.1491 48.1081 41.0547 47.7891 40.9961C47.4766 40.931 47.1087 40.8984 46.6855 40.8984H44.3711V50H42.5645V39.4336H46.6855C47.3561 39.4336 47.9583 39.4922 48.4922 39.6094C49.0326 39.7266 49.4915 39.9056 49.8691 40.1465C50.2533 40.3809 50.5462 40.6803 50.748 41.0449C50.9499 41.4095 51.0508 41.8392 51.0508 42.334C51.0508 42.653 50.9857 42.9557 50.8555 43.2422C50.7253 43.5286 50.5332 43.7826 50.2793 44.0039C50.0254 44.2253 49.7129 44.4076 49.3418 44.5508C48.9707 44.6875 48.5443 44.7754 48.0625 44.8145L47.3594 45.3516ZM47.3594 50H43.2383L44.1367 48.5352H47.3594C47.8607 48.5352 48.2773 48.4733 48.6094 48.3496C48.9414 48.2194 49.1888 48.0371 49.3516 47.8027C49.5208 47.5618 49.6055 47.2754 49.6055 46.9434C49.6055 46.6113 49.5208 46.3281 49.3516 46.0938C49.1888 45.8529 48.9414 45.6706 48.6094 45.5469C48.2773 45.4167 47.8607 45.3516 47.3594 45.3516H44.6152L44.6348 43.9062H48.0625L48.7168 44.4531C49.2962 44.4987 49.7878 44.6419 50.1914 44.8828C50.5951 45.1237 50.901 45.4297 51.1094 45.8008C51.3177 46.1654 51.4219 46.5625 51.4219 46.9922C51.4219 47.487 51.3275 47.9232 51.1387 48.3008C50.9564 48.6784 50.6895 48.9941 50.3379 49.248C49.9863 49.4954 49.5599 49.6842 49.0586 49.8145C48.5573 49.9382 47.9909 50 47.3594 50ZM58.0332 39.4336V50H56.2168V39.4336H58.0332ZM61.5781 39.4336V40.8984H52.7402V39.4336H61.5781Z" fill="#292626"/>
<path d="M50.748 78.5156V80H41.4414V78.7012L46.0996 73.5156C46.6725 72.8776 47.1152 72.3372 47.4277 71.8945C47.7467 71.4453 47.9681 71.0449 48.0918 70.6934C48.222 70.3353 48.2871 69.9707 48.2871 69.5996C48.2871 69.1309 48.1895 68.7077 47.9941 68.3301C47.8053 67.946 47.5254 67.64 47.1543 67.4121C46.7832 67.1842 46.334 67.0703 45.8066 67.0703C45.1751 67.0703 44.6478 67.194 44.2246 67.4414C43.8079 67.6823 43.4954 68.0208 43.2871 68.457C43.0788 68.8932 42.9746 69.3945 42.9746 69.9609H41.168C41.168 69.1602 41.3438 68.4277 41.6953 67.7637C42.0469 67.0996 42.5677 66.5723 43.2578 66.1816C43.9479 65.7845 44.7975 65.5859 45.8066 65.5859C46.7051 65.5859 47.4733 65.7454 48.1113 66.0645C48.7493 66.377 49.2376 66.8197 49.5762 67.3926C49.9212 67.959 50.0938 68.623 50.0938 69.3848C50.0938 69.8014 50.0221 70.2246 49.8789 70.6543C49.7422 71.0775 49.5501 71.5007 49.3027 71.9238C49.0618 72.347 48.7786 72.7637 48.4531 73.1738C48.1341 73.584 47.7923 73.9876 47.4277 74.3848L43.6191 78.5156H50.748ZM61.6465 76.1523C61.6465 77.0182 61.4447 77.7539 61.041 78.3594C60.6439 78.9583 60.1035 79.4141 59.4199 79.7266C58.7428 80.0391 57.9779 80.1953 57.125 80.1953C56.2721 80.1953 55.5039 80.0391 54.8203 79.7266C54.1367 79.4141 53.5964 78.9583 53.1992 78.3594C52.8021 77.7539 52.6035 77.0182 52.6035 76.1523C52.6035 75.5859 52.7109 75.0684 52.9258 74.5996C53.1471 74.1243 53.4564 73.7109 53.8535 73.3594C54.2572 73.0078 54.7324 72.7376 55.2793 72.5488C55.8327 72.3535 56.4414 72.2559 57.1055 72.2559C57.9779 72.2559 58.7559 72.4251 59.4395 72.7637C60.123 73.0957 60.6602 73.5547 61.0508 74.1406C61.4479 74.7266 61.6465 75.3971 61.6465 76.1523ZM59.8301 76.1133C59.8301 75.5859 59.7161 75.1204 59.4883 74.7168C59.2604 74.3066 58.9414 73.9876 58.5312 73.7598C58.1211 73.5319 57.6458 73.418 57.1055 73.418C56.5521 73.418 56.0736 73.5319 55.6699 73.7598C55.2728 73.9876 54.9635 74.3066 54.7422 74.7168C54.5208 75.1204 54.4102 75.5859 54.4102 76.1133C54.4102 76.6602 54.5176 77.1289 54.7324 77.5195C54.9538 77.9036 55.2663 78.1999 55.6699 78.4082C56.0801 78.61 56.5651 78.7109 57.125 78.7109C57.6849 78.7109 58.1667 78.61 58.5703 78.4082C58.974 78.1999 59.2832 77.9036 59.498 77.5195C59.7194 77.1289 59.8301 76.6602 59.8301 76.1133ZM61.3145 69.4824C61.3145 70.1725 61.1322 70.7943 60.7676 71.3477C60.403 71.901 59.9049 72.3372 59.2734 72.6562C58.6419 72.9753 57.9258 73.1348 57.125 73.1348C56.3112 73.1348 55.5853 72.9753 54.9473 72.6562C54.3158 72.3372 53.821 71.901 53.4629 71.3477C53.1048 70.7943 52.9258 70.1725 52.9258 69.4824C52.9258 68.6556 53.1048 67.9525 53.4629 67.373C53.8275 66.7936 54.3255 66.3509 54.957 66.0449C55.5885 65.7389 56.3079 65.5859 57.1152 65.5859C57.929 65.5859 58.6517 65.7389 59.2832 66.0449C59.9147 66.3509 60.4095 66.7936 60.7676 67.373C61.1322 67.9525 61.3145 68.6556 61.3145 69.4824ZM59.5078 69.5117C59.5078 69.0365 59.4069 68.6165 59.2051 68.252C59.0033 67.8874 58.7233 67.6009 58.3652 67.3926C58.0072 67.1777 57.5905 67.0703 57.1152 67.0703C56.64 67.0703 56.2233 67.1712 55.8652 67.373C55.5137 67.5684 55.237 67.8483 55.0352 68.2129C54.8398 68.5775 54.7422 69.0104 54.7422 69.5117C54.7422 70 54.8398 70.4264 55.0352 70.791C55.237 71.1556 55.5169 71.4388 55.875 71.6406C56.2331 71.8424 56.6497 71.9434 57.125 71.9434C57.6003 71.9434 58.0137 71.8424 58.3652 71.6406C58.7233 71.4388 59.0033 71.1556 59.2051 70.791C59.4069 70.4264 59.5078 70 59.5078 69.5117Z" fill="#9A9797"/>
<path d="M49.3418 103.232L47.8965 102.861L48.6094 95.7812H55.9043V97.4512H50.1426L49.7129 101.318C49.9733 101.169 50.3021 101.029 50.6992 100.898C51.1029 100.768 51.5651 100.703 52.0859 100.703C52.7435 100.703 53.3327 100.817 53.8535 101.045C54.3743 101.266 54.8171 101.585 55.1816 102.002C55.5527 102.419 55.8359 102.92 56.0312 103.506C56.2266 104.092 56.3242 104.746 56.3242 105.469C56.3242 106.152 56.2298 106.781 56.041 107.354C55.8587 107.926 55.582 108.428 55.2109 108.857C54.8398 109.281 54.3711 109.609 53.8047 109.844C53.2448 110.078 52.584 110.195 51.8223 110.195C51.2493 110.195 50.7057 110.117 50.1914 109.961C49.6836 109.798 49.2279 109.554 48.8242 109.229C48.4271 108.896 48.1016 108.486 47.8477 107.998C47.6003 107.503 47.444 106.924 47.3789 106.26H49.0977C49.1758 106.794 49.332 107.243 49.5664 107.607C49.8008 107.972 50.1068 108.249 50.4844 108.438C50.8685 108.62 51.3145 108.711 51.8223 108.711C52.252 108.711 52.6328 108.636 52.9648 108.486C53.2969 108.337 53.5768 108.122 53.8047 107.842C54.0326 107.562 54.2051 107.223 54.3223 106.826C54.446 106.429 54.5078 105.983 54.5078 105.488C54.5078 105.039 54.446 104.622 54.3223 104.238C54.1986 103.854 54.013 103.519 53.7656 103.232C53.5247 102.946 53.2285 102.725 52.877 102.568C52.5254 102.406 52.1217 102.324 51.666 102.324C51.0605 102.324 50.6016 102.406 50.2891 102.568C49.9831 102.731 49.6673 102.952 49.3418 103.232Z" fill="#292626"/>
<path d="M47.8691 125.703V140H46.0625V127.959L42.4199 129.287V127.656L47.5859 125.703H47.8691ZM62.498 138.516V140H53.1914V138.701L57.8496 133.516C58.4225 132.878 58.8652 132.337 59.1777 131.895C59.4967 131.445 59.7181 131.045 59.8418 130.693C59.972 130.335 60.0371 129.971 60.0371 129.6C60.0371 129.131 59.9395 128.708 59.7441 128.33C59.5553 127.946 59.2754 127.64 58.9043 127.412C58.5332 127.184 58.084 127.07 57.5566 127.07C56.9251 127.07 56.3978 127.194 55.9746 127.441C55.5579 127.682 55.2454 128.021 55.0371 128.457C54.8288 128.893 54.7246 129.395 54.7246 129.961H52.918C52.918 129.16 53.0938 128.428 53.4453 127.764C53.7969 127.1 54.3177 126.572 55.0078 126.182C55.6979 125.785 56.5475 125.586 57.5566 125.586C58.4551 125.586 59.2233 125.745 59.8613 126.064C60.4993 126.377 60.9876 126.82 61.3262 127.393C61.6712 127.959 61.8438 128.623 61.8438 129.385C61.8438 129.801 61.7721 130.225 61.6289 130.654C61.4922 131.077 61.3001 131.501 61.0527 131.924C60.8118 132.347 60.5286 132.764 60.2031 133.174C59.8841 133.584 59.5423 133.988 59.1777 134.385L55.3691 138.516H62.498Z" fill="#292626"/>
<path d="M84.7559 48.7109C85.1855 48.7109 85.5827 48.623 85.9473 48.4473C86.3118 48.2715 86.6113 48.0306 86.8457 47.7246C87.0801 47.4121 87.2135 47.0573 87.2461 46.6602H88.9648C88.9323 47.2852 88.7207 47.8678 88.3301 48.4082C87.946 48.9421 87.4414 49.375 86.8164 49.707C86.1914 50.0326 85.5046 50.1953 84.7559 50.1953C83.9616 50.1953 83.2682 50.0553 82.6758 49.7754C82.0898 49.4954 81.6016 49.1113 81.2109 48.623C80.8268 48.1348 80.5371 47.5749 80.3418 46.9434C80.153 46.3053 80.0586 45.6315 80.0586 44.9219V44.5117C80.0586 43.8021 80.153 43.1315 80.3418 42.5C80.5371 41.862 80.8268 41.2988 81.2109 40.8105C81.6016 40.3223 82.0898 39.9382 82.6758 39.6582C83.2682 39.3783 83.9616 39.2383 84.7559 39.2383C85.5827 39.2383 86.3053 39.4076 86.9238 39.7461C87.5423 40.0781 88.0273 40.5339 88.3789 41.1133C88.737 41.6862 88.9323 42.3372 88.9648 43.0664H87.2461C87.2135 42.6302 87.0898 42.2363 86.875 41.8848C86.6667 41.5332 86.3802 41.2533 86.0156 41.0449C85.6576 40.8301 85.2376 40.7227 84.7559 40.7227C84.2025 40.7227 83.737 40.8333 83.3594 41.0547C82.9883 41.2695 82.6921 41.5625 82.4707 41.9336C82.2559 42.2982 82.0996 42.7051 82.002 43.1543C81.9108 43.597 81.8652 44.0495 81.8652 44.5117V44.9219C81.8652 45.3841 81.9108 45.8398 82.002 46.2891C82.0931 46.7383 82.2461 47.1452 82.4609 47.5098C82.6823 47.8743 82.9785 48.1673 83.3496 48.3887C83.7272 48.6035 84.196 48.7109 84.7559 48.7109ZM92.8027 41.4648V54.0625H90.9863V39.4336H92.6465L92.8027 41.4648ZM99.9219 44.6289V44.834C99.9219 45.6022 99.8307 46.3151 99.6484 46.9727C99.4661 47.6237 99.1992 48.1901 98.8477 48.6719C98.5026 49.1536 98.0762 49.528 97.5684 49.7949C97.0605 50.0618 96.4779 50.1953 95.8203 50.1953C95.1497 50.1953 94.5573 50.0846 94.043 49.8633C93.5286 49.6419 93.0924 49.3197 92.7344 48.8965C92.3763 48.4733 92.0898 47.9655 91.875 47.373C91.6667 46.7806 91.5234 46.1133 91.4453 45.3711V44.2773C91.5234 43.4961 91.6699 42.7962 91.8848 42.1777C92.0996 41.5592 92.3828 41.0319 92.7344 40.5957C93.0924 40.153 93.5254 39.8177 94.0332 39.5898C94.541 39.3555 95.127 39.2383 95.791 39.2383C96.4551 39.2383 97.0443 39.3685 97.5586 39.6289C98.0729 39.8828 98.5059 40.2474 98.8574 40.7227C99.209 41.1979 99.4727 41.7676 99.6484 42.4316C99.8307 43.0892 99.9219 43.8216 99.9219 44.6289ZM98.1055 44.834V44.6289C98.1055 44.1016 98.0501 43.6068 97.9395 43.1445C97.8288 42.6758 97.6562 42.2656 97.4219 41.9141C97.194 41.556 96.901 41.276 96.543 41.0742C96.1849 40.8659 95.7585 40.7617 95.2637 40.7617C94.8079 40.7617 94.4108 40.8398 94.0723 40.9961C93.7402 41.1523 93.457 41.3639 93.2227 41.6309C92.9883 41.8913 92.7962 42.1908 92.6465 42.5293C92.5033 42.8613 92.3958 43.2064 92.3242 43.5645V46.0938C92.4544 46.5495 92.6367 46.9792 92.8711 47.3828C93.1055 47.7799 93.418 48.1022 93.8086 48.3496C94.1992 48.5905 94.6908 48.7109 95.2832 48.7109C95.7715 48.7109 96.1914 48.61 96.543 48.4082C96.901 48.1999 97.194 47.9167 97.4219 47.5586C97.6562 47.2005 97.8288 46.7904 97.9395 46.3281C98.0501 45.8594 98.1055 45.3613 98.1055 44.834Z" fill="#292626"/>
<path d="M89.748 78.5156V80H80.4414V78.7012L85.0996 73.5156C85.6725 72.8776 86.1152 72.3372 86.4277 71.8945C86.7467 71.4453 86.9681 71.0449 87.0918 70.6934C87.222 70.3353 87.2871 69.9707 87.2871 69.5996C87.2871 69.1309 87.1895 68.7077 86.9941 68.3301C86.8053 67.946 86.5254 67.64 86.1543 67.4121C85.7832 67.1842 85.334 67.0703 84.8066 67.0703C84.1751 67.0703 83.6478 67.194 83.2246 67.4414C82.8079 67.6823 82.4954 68.0208 82.2871 68.457C82.0788 68.8932 81.9746 69.3945 81.9746 69.9609H80.168C80.168 69.1602 80.3438 68.4277 80.6953 67.7637C81.0469 67.0996 81.5677 66.5723 82.2578 66.1816C82.9479 65.7845 83.7975 65.5859 84.8066 65.5859C85.7051 65.5859 86.4733 65.7454 87.1113 66.0645C87.7493 66.377 88.2376 66.8197 88.5762 67.3926C88.9212 67.959 89.0938 68.623 89.0938 69.3848C89.0938 69.8014 89.0221 70.2246 88.8789 70.6543C88.7422 71.0775 88.5501 71.5007 88.3027 71.9238C88.0618 72.347 87.7786 72.7637 87.4531 73.1738C87.1341 73.584 86.7923 73.9876 86.4277 74.3848L82.6191 78.5156H89.748ZM93.4785 78.4863H93.6641C94.7057 78.4863 95.5521 78.3398 96.2031 78.0469C96.8542 77.7539 97.3555 77.36 97.707 76.8652C98.0586 76.3704 98.2995 75.8138 98.4297 75.1953C98.5599 74.5703 98.625 73.929 98.625 73.2715V71.0938C98.625 70.4492 98.5501 69.8763 98.4004 69.375C98.2572 68.8737 98.0553 68.4538 97.7949 68.1152C97.541 67.7767 97.2513 67.5195 96.9258 67.3438C96.6003 67.168 96.2552 67.0801 95.8906 67.0801C95.474 67.0801 95.0996 67.1647 94.7676 67.334C94.4421 67.4967 94.1654 67.7279 93.9375 68.0273C93.7161 68.3268 93.5469 68.6784 93.4297 69.082C93.3125 69.4857 93.2539 69.9251 93.2539 70.4004C93.2539 70.8236 93.306 71.2337 93.4102 71.6309C93.5143 72.028 93.6738 72.3861 93.8887 72.7051C94.1035 73.0241 94.3704 73.278 94.6895 73.4668C95.015 73.6491 95.3958 73.7402 95.832 73.7402C96.2357 73.7402 96.6133 73.6621 96.9648 73.5059C97.3229 73.3431 97.6387 73.125 97.9121 72.8516C98.1921 72.5716 98.4134 72.2559 98.5762 71.9043C98.7454 71.5527 98.8431 71.1849 98.8691 70.8008H99.7285C99.7285 71.3411 99.6211 71.875 99.4062 72.4023C99.1979 72.9232 98.9049 73.3984 98.5273 73.8281C98.1497 74.2578 97.707 74.6029 97.1992 74.8633C96.6914 75.1172 96.138 75.2441 95.5391 75.2441C94.8359 75.2441 94.2272 75.1074 93.7129 74.834C93.1986 74.5605 92.7754 74.196 92.4434 73.7402C92.1178 73.2845 91.8737 72.7767 91.7109 72.2168C91.5547 71.6504 91.4766 71.0775 91.4766 70.498C91.4766 69.821 91.571 69.1862 91.7598 68.5938C91.9486 68.0013 92.2285 67.4805 92.5996 67.0312C92.9707 66.5755 93.4297 66.2207 93.9766 65.9668C94.5299 65.7129 95.168 65.5859 95.8906 65.5859C96.7044 65.5859 97.3978 65.7487 97.9707 66.0742C98.5436 66.3997 99.0091 66.8359 99.3672 67.3828C99.7318 67.9297 99.9987 68.5449 100.168 69.2285C100.337 69.9121 100.422 70.6152 100.422 71.3379V71.9922C100.422 72.7279 100.373 73.4766 100.275 74.2383C100.184 74.9935 100.005 75.7161 99.7383 76.4062C99.4779 77.0964 99.097 77.7148 98.5957 78.2617C98.0944 78.8021 97.4401 79.2318 96.6328 79.5508C95.832 79.8633 94.8424 80.0195 93.6641 80.0195H93.4785V78.4863Z" fill="#9A9797"/>
<path d="M92.4902 95.7617H92.6465V97.2949H92.4902C91.5332 97.2949 90.7324 97.4512 90.0879 97.7637C89.4434 98.0697 88.9323 98.4831 88.5547 99.0039C88.1771 99.5182 87.9036 100.098 87.7344 100.742C87.5716 101.387 87.4902 102.041 87.4902 102.705V104.795C87.4902 105.426 87.5651 105.986 87.7148 106.475C87.8646 106.956 88.0697 107.363 88.3301 107.695C88.5905 108.027 88.8835 108.278 89.209 108.447C89.541 108.617 89.8861 108.701 90.2441 108.701C90.6608 108.701 91.0319 108.623 91.3574 108.467C91.6829 108.304 91.9564 108.079 92.1777 107.793C92.4056 107.5 92.5781 107.155 92.6953 106.758C92.8125 106.361 92.8711 105.924 92.8711 105.449C92.8711 105.026 92.819 104.619 92.7148 104.229C92.6107 103.831 92.4512 103.48 92.2363 103.174C92.0215 102.861 91.7513 102.617 91.4258 102.441C91.1068 102.259 90.7259 102.168 90.2832 102.168C89.7819 102.168 89.3132 102.292 88.877 102.539C88.4473 102.78 88.0924 103.099 87.8125 103.496C87.5391 103.887 87.3828 104.313 87.3438 104.775L86.3867 104.766C86.4779 104.036 86.6471 103.415 86.8945 102.9C87.1484 102.38 87.4609 101.956 87.832 101.631C88.2096 101.299 88.6296 101.058 89.0918 100.908C89.5605 100.752 90.0553 100.674 90.5762 100.674C91.2858 100.674 91.8978 100.807 92.4121 101.074C92.9264 101.341 93.3496 101.699 93.6816 102.148C94.0137 102.591 94.2578 103.092 94.4141 103.652C94.5768 104.206 94.6582 104.775 94.6582 105.361C94.6582 106.032 94.5638 106.66 94.375 107.246C94.1862 107.832 93.903 108.346 93.5254 108.789C93.1543 109.232 92.6953 109.577 92.1484 109.824C91.6016 110.072 90.9668 110.195 90.2441 110.195C89.4759 110.195 88.8053 110.039 88.2324 109.727C87.6595 109.408 87.1842 108.984 86.8066 108.457C86.429 107.93 86.1458 107.344 85.957 106.699C85.7682 106.055 85.6738 105.4 85.6738 104.736V103.887C85.6738 102.884 85.7747 101.901 85.9766 100.938C86.1784 99.974 86.5267 99.1016 87.0215 98.3203C87.5228 97.5391 88.2161 96.9173 89.1016 96.4551C89.987 95.9928 91.1165 95.7617 92.4902 95.7617Z" fill="#292626"/>
<path d="M86.3691 125.703V140H84.5625V127.959L80.9199 129.287V127.656L86.0859 125.703H86.3691ZM94.3184 132.002H95.6074C96.2389 132.002 96.7598 131.898 97.1699 131.689C97.5866 131.475 97.8958 131.185 98.0977 130.82C98.306 130.449 98.4102 130.033 98.4102 129.57C98.4102 129.023 98.319 128.564 98.1367 128.193C97.9544 127.822 97.681 127.542 97.3164 127.354C96.9518 127.165 96.4896 127.07 95.9297 127.07C95.4219 127.07 94.9727 127.171 94.582 127.373C94.1979 127.568 93.8952 127.848 93.6738 128.213C93.459 128.577 93.3516 129.007 93.3516 129.502H91.5449C91.5449 128.779 91.7272 128.122 92.0918 127.529C92.4564 126.937 92.9674 126.465 93.625 126.113C94.2891 125.762 95.0573 125.586 95.9297 125.586C96.7891 125.586 97.541 125.739 98.1855 126.045C98.8301 126.344 99.3314 126.794 99.6895 127.393C100.048 127.985 100.227 128.724 100.227 129.609C100.227 129.967 100.142 130.352 99.9727 130.762C99.8099 131.165 99.5527 131.543 99.2012 131.895C98.8561 132.246 98.4069 132.536 97.8535 132.764C97.3001 132.985 96.6361 133.096 95.8613 133.096H94.3184V132.002ZM94.3184 133.486V132.402H95.8613C96.7663 132.402 97.515 132.51 98.1074 132.725C98.6999 132.939 99.1654 133.226 99.5039 133.584C99.849 133.942 100.09 134.336 100.227 134.766C100.37 135.189 100.441 135.612 100.441 136.035C100.441 136.699 100.327 137.288 100.1 137.803C99.8783 138.317 99.5625 138.753 99.1523 139.111C98.7487 139.469 98.2734 139.74 97.7266 139.922C97.1797 140.104 96.584 140.195 95.9395 140.195C95.321 140.195 94.7383 140.107 94.1914 139.932C93.651 139.756 93.1725 139.502 92.7559 139.17C92.3392 138.831 92.0137 138.418 91.7793 137.93C91.5449 137.435 91.4277 136.872 91.4277 136.24H93.2344C93.2344 136.735 93.3418 137.168 93.5566 137.539C93.778 137.91 94.0905 138.2 94.4941 138.408C94.9043 138.61 95.3861 138.711 95.9395 138.711C96.4928 138.711 96.9681 138.617 97.3652 138.428C97.7689 138.232 98.0781 137.939 98.293 137.549C98.5143 137.158 98.625 136.667 98.625 136.074C98.625 135.482 98.5013 134.997 98.2539 134.619C98.0065 134.235 97.6549 133.952 97.1992 133.77C96.75 133.581 96.2194 133.486 95.6074 133.486H94.3184Z" fill="#292626"/>
<path d="M127.592 39.4336V50H125.785V39.4336H127.592ZM126.977 44.2871V45.7715C126.612 45.9082 126.241 46.0319 125.863 46.1426C125.492 46.2467 125.098 46.3314 124.682 46.3965C124.271 46.4551 123.826 46.4844 123.344 46.4844C122.51 46.4844 121.788 46.3411 121.176 46.0547C120.564 45.7617 120.092 45.3223 119.76 44.7363C119.428 44.1439 119.262 43.3984 119.262 42.5V39.4141H121.068V42.5C121.068 43.0859 121.156 43.5612 121.332 43.9258C121.508 44.2904 121.765 44.5605 122.104 44.7363C122.442 44.9056 122.855 44.9902 123.344 44.9902C123.812 44.9902 124.252 44.9609 124.662 44.9023C125.079 44.8372 125.476 44.7526 125.854 44.6484C126.238 44.5443 126.612 44.4238 126.977 44.2871ZM134.809 39.4336V50H132.992V39.4336H134.809ZM138.354 39.4336V40.8984H129.516V39.4336H138.354Z" fill="#292626"/>
<path d="M122.068 72.002H123.357C123.989 72.002 124.51 71.8978 124.92 71.6895C125.337 71.4746 125.646 71.1849 125.848 70.8203C126.056 70.4492 126.16 70.0326 126.16 69.5703C126.16 69.0234 126.069 68.5645 125.887 68.1934C125.704 67.8223 125.431 67.5423 125.066 67.3535C124.702 67.1647 124.24 67.0703 123.68 67.0703C123.172 67.0703 122.723 67.1712 122.332 67.373C121.948 67.5684 121.645 67.8483 121.424 68.2129C121.209 68.5775 121.102 69.0072 121.102 69.502H119.295C119.295 68.7793 119.477 68.1217 119.842 67.5293C120.206 66.9368 120.717 66.4648 121.375 66.1133C122.039 65.7617 122.807 65.5859 123.68 65.5859C124.539 65.5859 125.291 65.7389 125.936 66.0449C126.58 66.3444 127.081 66.7936 127.439 67.3926C127.798 67.985 127.977 68.724 127.977 69.6094C127.977 69.9674 127.892 70.3516 127.723 70.7617C127.56 71.1654 127.303 71.543 126.951 71.8945C126.606 72.2461 126.157 72.5358 125.604 72.7637C125.05 72.985 124.386 73.0957 123.611 73.0957H122.068V72.002ZM122.068 73.4863V72.4023H123.611C124.516 72.4023 125.265 72.5098 125.857 72.7246C126.45 72.9395 126.915 73.2259 127.254 73.584C127.599 73.9421 127.84 74.3359 127.977 74.7656C128.12 75.1888 128.191 75.612 128.191 76.0352C128.191 76.6992 128.077 77.2884 127.85 77.8027C127.628 78.3171 127.312 78.7533 126.902 79.1113C126.499 79.4694 126.023 79.7396 125.477 79.9219C124.93 80.1042 124.334 80.1953 123.689 80.1953C123.071 80.1953 122.488 80.1074 121.941 79.9316C121.401 79.7559 120.923 79.502 120.506 79.1699C120.089 78.8314 119.764 78.418 119.529 77.9297C119.295 77.4349 119.178 76.8717 119.178 76.2402H120.984C120.984 76.735 121.092 77.168 121.307 77.5391C121.528 77.9102 121.84 78.1999 122.244 78.4082C122.654 78.61 123.136 78.7109 123.689 78.7109C124.243 78.7109 124.718 78.6165 125.115 78.4277C125.519 78.2324 125.828 77.9395 126.043 77.5488C126.264 77.1582 126.375 76.6667 126.375 76.0742C126.375 75.4818 126.251 74.9967 126.004 74.6191C125.757 74.235 125.405 73.9518 124.949 73.7695C124.5 73.5807 123.969 73.4863 123.357 73.4863H122.068ZM139.607 71.7578V73.9258C139.607 75.0911 139.503 76.0742 139.295 76.875C139.087 77.6758 138.787 78.3203 138.396 78.8086C138.006 79.2969 137.534 79.6517 136.98 79.873C136.434 80.0879 135.815 80.1953 135.125 80.1953C134.578 80.1953 134.074 80.127 133.611 79.9902C133.149 79.8535 132.732 79.6354 132.361 79.3359C131.997 79.0299 131.684 78.6328 131.424 78.1445C131.163 77.6562 130.965 77.0638 130.828 76.3672C130.691 75.6706 130.623 74.8568 130.623 73.9258V71.7578C130.623 70.5924 130.727 69.6159 130.936 68.8281C131.15 68.0404 131.453 67.4089 131.844 66.9336C132.234 66.4518 132.703 66.1068 133.25 65.8984C133.803 65.6901 134.422 65.5859 135.105 65.5859C135.659 65.5859 136.167 65.6543 136.629 65.791C137.098 65.9212 137.514 66.1328 137.879 66.4258C138.243 66.7122 138.553 67.0964 138.807 67.5781C139.067 68.0534 139.266 68.6361 139.402 69.3262C139.539 70.0163 139.607 70.8268 139.607 71.7578ZM137.791 74.2188V71.4551C137.791 70.8171 137.752 70.2572 137.674 69.7754C137.602 69.2871 137.495 68.8704 137.352 68.5254C137.208 68.1803 137.026 67.9004 136.805 67.6855C136.59 67.4707 136.339 67.3145 136.053 67.2168C135.773 67.1126 135.457 67.0605 135.105 67.0605C134.676 67.0605 134.295 67.1419 133.963 67.3047C133.631 67.4609 133.351 67.7116 133.123 68.0566C132.902 68.4017 132.732 68.8542 132.615 69.4141C132.498 69.974 132.439 70.6543 132.439 71.4551V74.2188C132.439 74.8568 132.475 75.4199 132.547 75.9082C132.625 76.3965 132.739 76.8197 132.889 77.1777C133.038 77.5293 133.221 77.819 133.436 78.0469C133.65 78.2747 133.898 78.444 134.178 78.5547C134.464 78.6589 134.78 78.7109 135.125 78.7109C135.568 78.7109 135.955 78.6263 136.287 78.457C136.619 78.2878 136.896 78.0241 137.117 77.666C137.345 77.3014 137.514 76.8359 137.625 76.2695C137.736 75.6966 137.791 75.013 137.791 74.2188Z" fill="#9A9797"/>
<path d="M134.746 95.7812V96.7969L128.857 110H126.953L132.832 97.2656H125.137V95.7812H134.746Z" fill="#292626"/>
<path d="M125.369 125.703V140H123.562V127.959L119.92 129.287V127.656L125.086 125.703H125.369ZM140.291 135.215V136.699H130.018V135.635L136.385 125.781H137.859L136.277 128.633L132.068 135.215H140.291ZM138.309 125.781V140H136.502V125.781H138.309Z" fill="#292626"/>
<path d="M164.832 39.4336V40.9277H159.49V39.4336H164.832ZM159.754 39.4336V50H157.947V39.4336H159.754ZM166.434 39.4336V50H164.617V39.4336H166.434ZM173.641 39.4336V50H171.824V39.4336H173.641ZM177.186 39.4336V40.8984H168.348V39.4336H177.186Z" fill="#292626"/>
<path d="M168.494 65.7031V80H166.688V67.959L163.045 69.2871V67.6562L168.211 65.7031H168.494Z" fill="#292626"/>
<path d="M171.521 106.152C171.521 107.018 171.32 107.754 170.916 108.359C170.519 108.958 169.979 109.414 169.295 109.727C168.618 110.039 167.853 110.195 167 110.195C166.147 110.195 165.379 110.039 164.695 109.727C164.012 109.414 163.471 108.958 163.074 108.359C162.677 107.754 162.479 107.018 162.479 106.152C162.479 105.586 162.586 105.068 162.801 104.6C163.022 104.124 163.331 103.711 163.729 103.359C164.132 103.008 164.607 102.738 165.154 102.549C165.708 102.354 166.316 102.256 166.98 102.256C167.853 102.256 168.631 102.425 169.314 102.764C169.998 103.096 170.535 103.555 170.926 104.141C171.323 104.727 171.521 105.397 171.521 106.152ZM169.705 106.113C169.705 105.586 169.591 105.12 169.363 104.717C169.135 104.307 168.816 103.988 168.406 103.76C167.996 103.532 167.521 103.418 166.98 103.418C166.427 103.418 165.949 103.532 165.545 103.76C165.148 103.988 164.839 104.307 164.617 104.717C164.396 105.12 164.285 105.586 164.285 106.113C164.285 106.66 164.393 107.129 164.607 107.52C164.829 107.904 165.141 108.2 165.545 108.408C165.955 108.61 166.44 108.711 167 108.711C167.56 108.711 168.042 108.61 168.445 108.408C168.849 108.2 169.158 107.904 169.373 107.52C169.594 107.129 169.705 106.66 169.705 106.113ZM171.189 99.4824C171.189 100.173 171.007 100.794 170.643 101.348C170.278 101.901 169.78 102.337 169.148 102.656C168.517 102.975 167.801 103.135 167 103.135C166.186 103.135 165.46 102.975 164.822 102.656C164.191 102.337 163.696 101.901 163.338 101.348C162.98 100.794 162.801 100.173 162.801 99.4824C162.801 98.6556 162.98 97.9525 163.338 97.373C163.702 96.7936 164.201 96.3509 164.832 96.0449C165.464 95.7389 166.183 95.5859 166.99 95.5859C167.804 95.5859 168.527 95.7389 169.158 96.0449C169.79 96.3509 170.285 96.7936 170.643 97.373C171.007 97.9525 171.189 98.6556 171.189 99.4824ZM169.383 99.5117C169.383 99.0365 169.282 98.6165 169.08 98.252C168.878 97.8874 168.598 97.6009 168.24 97.3926C167.882 97.1777 167.465 97.0703 166.99 97.0703C166.515 97.0703 166.098 97.1712 165.74 97.373C165.389 97.5684 165.112 97.8483 164.91 98.2129C164.715 98.5775 164.617 99.0104 164.617 99.5117C164.617 100 164.715 100.426 164.91 100.791C165.112 101.156 165.392 101.439 165.75 101.641C166.108 101.842 166.525 101.943 167 101.943C167.475 101.943 167.889 101.842 168.24 101.641C168.598 101.439 168.878 101.156 169.08 100.791C169.282 100.426 169.383 100 169.383 99.5117Z" fill="#292626"/>
<path d="M163.869 125.703V140H162.062V127.959L158.42 129.287V127.656L163.586 125.703H163.869ZM171.467 133.232L170.021 132.861L170.734 125.781H178.029V127.451H172.268L171.838 131.318C172.098 131.169 172.427 131.029 172.824 130.898C173.228 130.768 173.69 130.703 174.211 130.703C174.868 130.703 175.458 130.817 175.979 131.045C176.499 131.266 176.942 131.585 177.307 132.002C177.678 132.419 177.961 132.92 178.156 133.506C178.352 134.092 178.449 134.746 178.449 135.469C178.449 136.152 178.355 136.781 178.166 137.354C177.984 137.926 177.707 138.428 177.336 138.857C176.965 139.281 176.496 139.609 175.93 139.844C175.37 140.078 174.709 140.195 173.947 140.195C173.374 140.195 172.831 140.117 172.316 139.961C171.809 139.798 171.353 139.554 170.949 139.229C170.552 138.896 170.227 138.486 169.973 137.998C169.725 137.503 169.569 136.924 169.504 136.26H171.223C171.301 136.794 171.457 137.243 171.691 137.607C171.926 137.972 172.232 138.249 172.609 138.438C172.993 138.62 173.439 138.711 173.947 138.711C174.377 138.711 174.758 138.636 175.09 138.486C175.422 138.337 175.702 138.122 175.93 137.842C176.158 137.562 176.33 137.223 176.447 136.826C176.571 136.429 176.633 135.983 176.633 135.488C176.633 135.039 176.571 134.622 176.447 134.238C176.324 133.854 176.138 133.519 175.891 133.232C175.65 132.946 175.354 132.725 175.002 132.568C174.65 132.406 174.247 132.324 173.791 132.324C173.186 132.324 172.727 132.406 172.414 132.568C172.108 132.731 171.792 132.952 171.467 133.232Z" fill="#292626"/>
<path d="M200.834 48.7109C201.264 48.7109 201.661 48.623 202.025 48.4473C202.39 48.2715 202.689 48.0306 202.924 47.7246C203.158 47.4121 203.292 47.0573 203.324 46.6602H205.043C205.01 47.2852 204.799 47.8678 204.408 48.4082C204.024 48.9421 203.52 49.375 202.895 49.707C202.27 50.0326 201.583 50.1953 200.834 50.1953C200.04 50.1953 199.346 50.0553 198.754 49.7754C198.168 49.4954 197.68 49.1113 197.289 48.623C196.905 48.1348 196.615 47.5749 196.42 46.9434C196.231 46.3053 196.137 45.6315 196.137 44.9219V44.5117C196.137 43.8021 196.231 43.1315 196.42 42.5C196.615 41.862 196.905 41.2988 197.289 40.8105C197.68 40.3223 198.168 39.9382 198.754 39.6582C199.346 39.3783 200.04 39.2383 200.834 39.2383C201.661 39.2383 202.383 39.4076 203.002 39.7461C203.62 40.0781 204.105 40.5339 204.457 41.1133C204.815 41.6862 205.01 42.3372 205.043 43.0664H203.324C203.292 42.6302 203.168 42.2363 202.953 41.8848C202.745 41.5332 202.458 41.2533 202.094 41.0449C201.736 40.8301 201.316 40.7227 200.834 40.7227C200.281 40.7227 199.815 40.8333 199.438 41.0547C199.066 41.2695 198.77 41.5625 198.549 41.9336C198.334 42.2982 198.178 42.7051 198.08 43.1543C197.989 43.597 197.943 44.0495 197.943 44.5117V44.9219C197.943 45.3841 197.989 45.8398 198.08 46.2891C198.171 46.7383 198.324 47.1452 198.539 47.5098C198.76 47.8743 199.057 48.1673 199.428 48.3887C199.805 48.6035 200.274 48.7109 200.834 48.7109ZM213.852 34.834H215.336C215.336 35.472 215.238 35.9798 215.043 36.3574C214.848 36.7285 214.581 37.015 214.242 37.2168C213.91 37.4186 213.533 37.5716 213.109 37.6758C212.693 37.7799 212.26 37.8809 211.811 37.9785C211.251 38.0957 210.73 38.2812 210.248 38.5352C209.773 38.7826 209.363 39.1341 209.018 39.5898C208.679 40.0456 208.428 40.638 208.266 41.3672C208.109 42.0964 208.067 42.998 208.139 44.0723V44.9707H206.654V44.0723C206.654 42.8678 206.768 41.8164 206.996 40.918C207.23 40.0195 207.559 39.2611 207.982 38.6426C208.406 38.0241 208.907 37.5326 209.486 37.168C210.072 36.8034 210.717 36.5527 211.42 36.416C211.928 36.3184 212.364 36.2142 212.729 36.1035C213.093 35.9863 213.37 35.8301 213.559 35.6348C213.754 35.4395 213.852 35.1725 213.852 34.834ZM211.713 40.0391C212.403 40.0391 213.018 40.1595 213.559 40.4004C214.099 40.6413 214.558 40.9766 214.936 41.4062C215.313 41.8359 215.6 42.3438 215.795 42.9297C215.997 43.5091 216.098 44.1406 216.098 44.8242V45.0391C216.098 45.7747 215.99 46.4583 215.775 47.0898C215.567 47.7148 215.258 48.2617 214.848 48.7305C214.444 49.1927 213.949 49.554 213.363 49.8145C212.784 50.0749 212.123 50.2051 211.381 50.2051C210.639 50.2051 209.975 50.0749 209.389 49.8145C208.809 49.554 208.314 49.1927 207.904 48.7305C207.494 48.2617 207.182 47.7148 206.967 47.0898C206.758 46.4583 206.654 45.7747 206.654 45.0391V44.8242C206.654 44.6615 206.684 44.502 206.742 44.3457C206.801 44.1895 206.872 44.0299 206.957 43.8672C207.048 43.7044 207.13 43.5319 207.201 43.3496C207.442 42.7637 207.771 42.2201 208.188 41.7188C208.611 41.2174 209.115 40.8138 209.701 40.5078C210.294 40.1953 210.964 40.0391 211.713 40.0391ZM211.361 41.5137C210.697 41.5137 210.15 41.6667 209.721 41.9727C209.298 42.2786 208.982 42.6855 208.773 43.1934C208.565 43.6947 208.461 44.2383 208.461 44.8242V45.0391C208.461 45.5339 208.52 46.0026 208.637 46.4453C208.754 46.888 208.93 47.2819 209.164 47.627C209.405 47.9655 209.708 48.2324 210.072 48.4277C210.443 48.623 210.88 48.7207 211.381 48.7207C211.882 48.7207 212.315 48.623 212.68 48.4277C213.044 48.2324 213.344 47.9655 213.578 47.627C213.812 47.2819 213.988 46.888 214.105 46.4453C214.223 46.0026 214.281 45.5339 214.281 45.0391V44.8242C214.281 44.3815 214.223 43.9616 214.105 43.5645C213.988 43.1673 213.809 42.8158 213.568 42.5098C213.334 42.2038 213.031 41.9629 212.66 41.7871C212.296 41.6048 211.863 41.5137 211.361 41.5137Z" fill="#292626"/>
<path d="M210.873 78.5156V80H201.566V78.7012L206.225 73.5156C206.798 72.8776 207.24 72.3372 207.553 71.8945C207.872 71.4453 208.093 71.0449 208.217 70.6934C208.347 70.3353 208.412 69.9707 208.412 69.5996C208.412 69.1309 208.314 68.7077 208.119 68.3301C207.93 67.946 207.65 67.64 207.279 67.4121C206.908 67.1842 206.459 67.0703 205.932 67.0703C205.3 67.0703 204.773 67.194 204.35 67.4414C203.933 67.6823 203.62 68.0208 203.412 68.457C203.204 68.8932 203.1 69.3945 203.1 69.9609H201.293C201.293 69.1602 201.469 68.4277 201.82 67.7637C202.172 67.0996 202.693 66.5723 203.383 66.1816C204.073 65.7845 204.923 65.5859 205.932 65.5859C206.83 65.5859 207.598 65.7454 208.236 66.0645C208.874 66.377 209.363 66.8197 209.701 67.3926C210.046 67.959 210.219 68.623 210.219 69.3848C210.219 69.8014 210.147 70.2246 210.004 70.6543C209.867 71.0775 209.675 71.5007 209.428 71.9238C209.187 72.347 208.904 72.7637 208.578 73.1738C208.259 73.584 207.917 73.9876 207.553 74.3848L203.744 78.5156H210.873Z" fill="#292626"/>
<path d="M203.854 108.486H204.039C205.081 108.486 205.927 108.34 206.578 108.047C207.229 107.754 207.73 107.36 208.082 106.865C208.434 106.37 208.674 105.814 208.805 105.195C208.935 104.57 209 103.929 209 103.271V101.094C209 100.449 208.925 99.8763 208.775 99.375C208.632 98.8737 208.43 98.4538 208.17 98.1152C207.916 97.7767 207.626 97.5195 207.301 97.3438C206.975 97.168 206.63 97.0801 206.266 97.0801C205.849 97.0801 205.475 97.1647 205.143 97.334C204.817 97.4967 204.54 97.7279 204.312 98.0273C204.091 98.3268 203.922 98.6784 203.805 99.082C203.688 99.4857 203.629 99.9251 203.629 100.4C203.629 100.824 203.681 101.234 203.785 101.631C203.889 102.028 204.049 102.386 204.264 102.705C204.479 103.024 204.745 103.278 205.064 103.467C205.39 103.649 205.771 103.74 206.207 103.74C206.611 103.74 206.988 103.662 207.34 103.506C207.698 103.343 208.014 103.125 208.287 102.852C208.567 102.572 208.788 102.256 208.951 101.904C209.12 101.553 209.218 101.185 209.244 100.801H210.104C210.104 101.341 209.996 101.875 209.781 102.402C209.573 102.923 209.28 103.398 208.902 103.828C208.525 104.258 208.082 104.603 207.574 104.863C207.066 105.117 206.513 105.244 205.914 105.244C205.211 105.244 204.602 105.107 204.088 104.834C203.574 104.561 203.15 104.196 202.818 103.74C202.493 103.285 202.249 102.777 202.086 102.217C201.93 101.65 201.852 101.077 201.852 100.498C201.852 99.821 201.946 99.1862 202.135 98.5938C202.324 98.0013 202.604 97.4805 202.975 97.0312C203.346 96.5755 203.805 96.2207 204.352 95.9668C204.905 95.7129 205.543 95.5859 206.266 95.5859C207.079 95.5859 207.773 95.7487 208.346 96.0742C208.919 96.3997 209.384 96.8359 209.742 97.3828C210.107 97.9297 210.374 98.5449 210.543 99.2285C210.712 99.9121 210.797 100.615 210.797 101.338V101.992C210.797 102.728 210.748 103.477 210.65 104.238C210.559 104.993 210.38 105.716 210.113 106.406C209.853 107.096 209.472 107.715 208.971 108.262C208.469 108.802 207.815 109.232 207.008 109.551C206.207 109.863 205.217 110.02 204.039 110.02H203.854V108.486Z" fill="#292626"/>
<path d="M202.369 125.703V140H200.562V127.959L196.92 129.287V127.656L202.086 125.703H202.369ZM214.615 125.762H214.771V127.295H214.615C213.658 127.295 212.857 127.451 212.213 127.764C211.568 128.07 211.057 128.483 210.68 129.004C210.302 129.518 210.029 130.098 209.859 130.742C209.697 131.387 209.615 132.041 209.615 132.705V134.795C209.615 135.426 209.69 135.986 209.84 136.475C209.99 136.956 210.195 137.363 210.455 137.695C210.715 138.027 211.008 138.278 211.334 138.447C211.666 138.617 212.011 138.701 212.369 138.701C212.786 138.701 213.157 138.623 213.482 138.467C213.808 138.304 214.081 138.079 214.303 137.793C214.531 137.5 214.703 137.155 214.82 136.758C214.938 136.361 214.996 135.924 214.996 135.449C214.996 135.026 214.944 134.619 214.84 134.229C214.736 133.831 214.576 133.48 214.361 133.174C214.146 132.861 213.876 132.617 213.551 132.441C213.232 132.259 212.851 132.168 212.408 132.168C211.907 132.168 211.438 132.292 211.002 132.539C210.572 132.78 210.217 133.099 209.938 133.496C209.664 133.887 209.508 134.313 209.469 134.775L208.512 134.766C208.603 134.036 208.772 133.415 209.02 132.9C209.273 132.38 209.586 131.956 209.957 131.631C210.335 131.299 210.755 131.058 211.217 130.908C211.686 130.752 212.18 130.674 212.701 130.674C213.411 130.674 214.023 130.807 214.537 131.074C215.051 131.341 215.475 131.699 215.807 132.148C216.139 132.591 216.383 133.092 216.539 133.652C216.702 134.206 216.783 134.775 216.783 135.361C216.783 136.032 216.689 136.66 216.5 137.246C216.311 137.832 216.028 138.346 215.65 138.789C215.279 139.232 214.82 139.577 214.273 139.824C213.727 140.072 213.092 140.195 212.369 140.195C211.601 140.195 210.93 140.039 210.357 139.727C209.785 139.408 209.309 138.984 208.932 138.457C208.554 137.93 208.271 137.344 208.082 136.699C207.893 136.055 207.799 135.4 207.799 134.736V133.887C207.799 132.884 207.9 131.901 208.102 130.938C208.303 129.974 208.652 129.102 209.146 128.32C209.648 127.539 210.341 126.917 211.227 126.455C212.112 125.993 213.242 125.762 214.615 125.762Z" fill="#292626"/>
<path d="M240.381 45.3516H236.914L236.895 43.9062H239.727C240.286 43.9062 240.752 43.8509 241.123 43.7402C241.501 43.6296 241.784 43.4635 241.973 43.2422C242.161 43.0208 242.256 42.7474 242.256 42.4219C242.256 42.168 242.201 41.9466 242.09 41.7578C241.986 41.5625 241.826 41.403 241.611 41.2793C241.396 41.1491 241.13 41.0547 240.811 40.9961C240.498 40.931 240.13 40.8984 239.707 40.8984H237.393V50H235.586V39.4336H239.707C240.378 39.4336 240.98 39.4922 241.514 39.6094C242.054 39.7266 242.513 39.9056 242.891 40.1465C243.275 40.3809 243.568 40.6803 243.77 41.0449C243.971 41.4095 244.072 41.8392 244.072 42.334C244.072 42.653 244.007 42.9557 243.877 43.2422C243.747 43.5286 243.555 43.7826 243.301 44.0039C243.047 44.2253 242.734 44.4076 242.363 44.5508C241.992 44.6875 241.566 44.7754 241.084 44.8145L240.381 45.3516ZM240.381 50H236.26L237.158 48.5352H240.381C240.882 48.5352 241.299 48.4733 241.631 48.3496C241.963 48.2194 242.21 48.0371 242.373 47.8027C242.542 47.5618 242.627 47.2754 242.627 46.9434C242.627 46.6113 242.542 46.3281 242.373 46.0938C242.21 45.8529 241.963 45.6706 241.631 45.5469C241.299 45.4167 240.882 45.3516 240.381 45.3516H237.637L237.656 43.9062H241.084L241.738 44.4531C242.318 44.4987 242.809 44.6419 243.213 44.8828C243.617 45.1237 243.923 45.4297 244.131 45.8008C244.339 46.1654 244.443 46.5625 244.443 46.9922C244.443 47.487 244.349 47.9232 244.16 48.3008C243.978 48.6784 243.711 48.9941 243.359 49.248C243.008 49.4954 242.581 49.6842 242.08 49.8145C241.579 49.9382 241.012 50 240.381 50ZM251.094 48.7109C251.523 48.7109 251.921 48.623 252.285 48.4473C252.65 48.2715 252.949 48.0306 253.184 47.7246C253.418 47.4121 253.551 47.0573 253.584 46.6602H255.303C255.27 47.2852 255.059 47.8678 254.668 48.4082C254.284 48.9421 253.779 49.375 253.154 49.707C252.529 50.0326 251.842 50.1953 251.094 50.1953C250.299 50.1953 249.606 50.0553 249.014 49.7754C248.428 49.4954 247.939 49.1113 247.549 48.623C247.165 48.1348 246.875 47.5749 246.68 46.9434C246.491 46.3053 246.396 45.6315 246.396 44.9219V44.5117C246.396 43.8021 246.491 43.1315 246.68 42.5C246.875 41.862 247.165 41.2988 247.549 40.8105C247.939 40.3223 248.428 39.9382 249.014 39.6582C249.606 39.3783 250.299 39.2383 251.094 39.2383C251.921 39.2383 252.643 39.4076 253.262 39.7461C253.88 40.0781 254.365 40.5339 254.717 41.1133C255.075 41.6862 255.27 42.3372 255.303 43.0664H253.584C253.551 42.6302 253.428 42.2363 253.213 41.8848C253.005 41.5332 252.718 41.2533 252.354 41.0449C251.995 40.8301 251.576 40.7227 251.094 40.7227C250.54 40.7227 250.075 40.8333 249.697 41.0547C249.326 41.2695 249.03 41.5625 248.809 41.9336C248.594 42.2982 248.438 42.7051 248.34 43.1543C248.249 43.597 248.203 44.0495 248.203 44.5117V44.9219C248.203 45.3841 248.249 45.8398 248.34 46.2891C248.431 46.7383 248.584 47.1452 248.799 47.5098C249.02 47.8743 249.316 48.1673 249.688 48.3887C250.065 48.6035 250.534 48.7109 251.094 48.7109Z" fill="#292626"/>
<path d="M243.193 72.002H244.482C245.114 72.002 245.635 71.8978 246.045 71.6895C246.462 71.4746 246.771 71.1849 246.973 70.8203C247.181 70.4492 247.285 70.0326 247.285 69.5703C247.285 69.0234 247.194 68.5645 247.012 68.1934C246.829 67.8223 246.556 67.5423 246.191 67.3535C245.827 67.1647 245.365 67.0703 244.805 67.0703C244.297 67.0703 243.848 67.1712 243.457 67.373C243.073 67.5684 242.77 67.8483 242.549 68.2129C242.334 68.5775 242.227 69.0072 242.227 69.502H240.42C240.42 68.7793 240.602 68.1217 240.967 67.5293C241.331 66.9368 241.842 66.4648 242.5 66.1133C243.164 65.7617 243.932 65.5859 244.805 65.5859C245.664 65.5859 246.416 65.7389 247.061 66.0449C247.705 66.3444 248.206 66.7936 248.564 67.3926C248.923 67.985 249.102 68.724 249.102 69.6094C249.102 69.9674 249.017 70.3516 248.848 70.7617C248.685 71.1654 248.428 71.543 248.076 71.8945C247.731 72.2461 247.282 72.5358 246.729 72.7637C246.175 72.985 245.511 73.0957 244.736 73.0957H243.193V72.002ZM243.193 73.4863V72.4023H244.736C245.641 72.4023 246.39 72.5098 246.982 72.7246C247.575 72.9395 248.04 73.2259 248.379 73.584C248.724 73.9421 248.965 74.3359 249.102 74.7656C249.245 75.1888 249.316 75.612 249.316 76.0352C249.316 76.6992 249.202 77.2884 248.975 77.8027C248.753 78.3171 248.438 78.7533 248.027 79.1113C247.624 79.4694 247.148 79.7396 246.602 79.9219C246.055 80.1042 245.459 80.1953 244.814 80.1953C244.196 80.1953 243.613 80.1074 243.066 79.9316C242.526 79.7559 242.048 79.502 241.631 79.1699C241.214 78.8314 240.889 78.418 240.654 77.9297C240.42 77.4349 240.303 76.8717 240.303 76.2402H242.109C242.109 76.735 242.217 77.168 242.432 77.5391C242.653 77.9102 242.965 78.1999 243.369 78.4082C243.779 78.61 244.261 78.7109 244.814 78.7109C245.368 78.7109 245.843 78.6165 246.24 78.4277C246.644 78.2324 246.953 77.9395 247.168 77.5488C247.389 77.1582 247.5 76.6667 247.5 76.0742C247.5 75.4818 247.376 74.9967 247.129 74.6191C246.882 74.235 246.53 73.9518 246.074 73.7695C245.625 73.5807 245.094 73.4863 244.482 73.4863H243.193Z" fill="#292626"/>
<path d="M240.869 95.7031V110H239.062V97.959L235.42 99.2871V97.6562L240.586 95.7031H240.869ZM255.107 101.758V103.926C255.107 105.091 255.003 106.074 254.795 106.875C254.587 107.676 254.287 108.32 253.896 108.809C253.506 109.297 253.034 109.652 252.48 109.873C251.934 110.088 251.315 110.195 250.625 110.195C250.078 110.195 249.574 110.127 249.111 109.99C248.649 109.854 248.232 109.635 247.861 109.336C247.497 109.03 247.184 108.633 246.924 108.145C246.663 107.656 246.465 107.064 246.328 106.367C246.191 105.671 246.123 104.857 246.123 103.926V101.758C246.123 100.592 246.227 99.6159 246.436 98.8281C246.65 98.0404 246.953 97.4089 247.344 96.9336C247.734 96.4518 248.203 96.1068 248.75 95.8984C249.303 95.6901 249.922 95.5859 250.605 95.5859C251.159 95.5859 251.667 95.6543 252.129 95.791C252.598 95.9212 253.014 96.1328 253.379 96.4258C253.743 96.7122 254.053 97.0964 254.307 97.5781C254.567 98.0534 254.766 98.6361 254.902 99.3262C255.039 100.016 255.107 100.827 255.107 101.758ZM253.291 104.219V101.455C253.291 100.817 253.252 100.257 253.174 99.7754C253.102 99.2871 252.995 98.8704 252.852 98.5254C252.708 98.1803 252.526 97.9004 252.305 97.6855C252.09 97.4707 251.839 97.3145 251.553 97.2168C251.273 97.1126 250.957 97.0605 250.605 97.0605C250.176 97.0605 249.795 97.1419 249.463 97.3047C249.131 97.4609 248.851 97.7116 248.623 98.0566C248.402 98.4017 248.232 98.8542 248.115 99.4141C247.998 99.974 247.939 100.654 247.939 101.455V104.219C247.939 104.857 247.975 105.42 248.047 105.908C248.125 106.396 248.239 106.82 248.389 107.178C248.538 107.529 248.721 107.819 248.936 108.047C249.15 108.275 249.398 108.444 249.678 108.555C249.964 108.659 250.28 108.711 250.625 108.711C251.068 108.711 251.455 108.626 251.787 108.457C252.119 108.288 252.396 108.024 252.617 107.666C252.845 107.301 253.014 106.836 253.125 106.27C253.236 105.697 253.291 105.013 253.291 104.219Z" fill="#292626"/>
<path d="M241.869 125.703V140H240.062V127.959L236.42 129.287V127.656L241.586 125.703H241.869ZM256.371 125.781V126.797L250.482 140H248.578L254.457 127.266H246.762V125.781H256.371Z" fill="#292626"/>
<path d="M221.498 15.5156V17H212.191V15.7012L216.85 10.5156C217.423 9.8776 217.865 9.33724 218.178 8.89453C218.497 8.44531 218.718 8.04492 218.842 7.69336C218.972 7.33529 219.037 6.9707 219.037 6.59961C219.037 6.13086 218.939 5.70768 218.744 5.33008C218.555 4.94596 218.275 4.63997 217.904 4.41211C217.533 4.18424 217.084 4.07031 216.557 4.07031C215.925 4.07031 215.398 4.19401 214.975 4.44141C214.558 4.68229 214.245 5.02083 214.037 5.45703C213.829 5.89323 213.725 6.39453 213.725 6.96094H211.918C211.918 6.16016 212.094 5.42773 212.445 4.76367C212.797 4.09961 213.318 3.57227 214.008 3.18164C214.698 2.78451 215.548 2.58594 216.557 2.58594C217.455 2.58594 218.223 2.74544 218.861 3.06445C219.499 3.37695 219.988 3.81966 220.326 4.39258C220.671 4.95898 220.844 5.62305 220.844 6.38477C220.844 6.80143 220.772 7.22461 220.629 7.6543C220.492 8.07747 220.3 8.50065 220.053 8.92383C219.812 9.34701 219.529 9.76367 219.203 10.1738C218.884 10.584 218.542 10.9876 218.178 11.3848L214.369 15.5156H221.498ZM232.357 8.75781V10.9258C232.357 12.0911 232.253 13.0742 232.045 13.875C231.837 14.6758 231.537 15.3203 231.146 15.8086C230.756 16.2969 230.284 16.6517 229.73 16.873C229.184 17.0879 228.565 17.1953 227.875 17.1953C227.328 17.1953 226.824 17.127 226.361 16.9902C225.899 16.8535 225.482 16.6354 225.111 16.3359C224.747 16.0299 224.434 15.6328 224.174 15.1445C223.913 14.6562 223.715 14.0638 223.578 13.3672C223.441 12.6706 223.373 11.8568 223.373 10.9258V8.75781C223.373 7.59245 223.477 6.61589 223.686 5.82812C223.9 5.04036 224.203 4.40885 224.594 3.93359C224.984 3.45182 225.453 3.10677 226 2.89844C226.553 2.6901 227.172 2.58594 227.855 2.58594C228.409 2.58594 228.917 2.6543 229.379 2.79102C229.848 2.92122 230.264 3.13281 230.629 3.42578C230.993 3.71224 231.303 4.09635 231.557 4.57812C231.817 5.05339 232.016 5.63607 232.152 6.32617C232.289 7.01628 232.357 7.82682 232.357 8.75781ZM230.541 11.2188V8.45508C230.541 7.81706 230.502 7.25716 230.424 6.77539C230.352 6.28711 230.245 5.87044 230.102 5.52539C229.958 5.18034 229.776 4.90039 229.555 4.68555C229.34 4.4707 229.089 4.31445 228.803 4.2168C228.523 4.11263 228.207 4.06055 227.855 4.06055C227.426 4.06055 227.045 4.14193 226.713 4.30469C226.381 4.46094 226.101 4.71159 225.873 5.05664C225.652 5.40169 225.482 5.85417 225.365 6.41406C225.248 6.97396 225.189 7.6543 225.189 8.45508V11.2188C225.189 11.8568 225.225 12.4199 225.297 12.9082C225.375 13.3965 225.489 13.8197 225.639 14.1777C225.788 14.5293 225.971 14.819 226.186 15.0469C226.4 15.2747 226.648 15.444 226.928 15.5547C227.214 15.6589 227.53 15.7109 227.875 15.7109C228.318 15.7109 228.705 15.6263 229.037 15.457C229.369 15.2878 229.646 15.0241 229.867 14.666C230.095 14.3014 230.264 13.8359 230.375 13.2695C230.486 12.6966 230.541 12.013 230.541 11.2188ZM243.998 15.5156V17H234.691V15.7012L239.35 10.5156C239.923 9.8776 240.365 9.33724 240.678 8.89453C240.997 8.44531 241.218 8.04492 241.342 7.69336C241.472 7.33529 241.537 6.9707 241.537 6.59961C241.537 6.13086 241.439 5.70768 241.244 5.33008C241.055 4.94596 240.775 4.63997 240.404 4.41211C240.033 4.18424 239.584 4.07031 239.057 4.07031C238.425 4.07031 237.898 4.19401 237.475 4.44141C237.058 4.68229 236.745 5.02083 236.537 5.45703C236.329 5.89323 236.225 6.39453 236.225 6.96094H234.418C234.418 6.16016 234.594 5.42773 234.945 4.76367C235.297 4.09961 235.818 3.57227 236.508 3.18164C237.198 2.78451 238.048 2.58594 239.057 2.58594C239.955 2.58594 240.723 2.74544 241.361 3.06445C241.999 3.37695 242.488 3.81966 242.826 4.39258C243.171 4.95898 243.344 5.62305 243.344 6.38477C243.344 6.80143 243.272 7.22461 243.129 7.6543C242.992 8.07747 242.8 8.50065 242.553 8.92383C242.312 9.34701 242.029 9.76367 241.703 10.1738C241.384 10.584 241.042 10.9876 240.678 11.3848L236.869 15.5156H243.998ZM255.248 15.5156V17H245.941V15.7012L250.6 10.5156C251.173 9.8776 251.615 9.33724 251.928 8.89453C252.247 8.44531 252.468 8.04492 252.592 7.69336C252.722 7.33529 252.787 6.9707 252.787 6.59961C252.787 6.13086 252.689 5.70768 252.494 5.33008C252.305 4.94596 252.025 4.63997 251.654 4.41211C251.283 4.18424 250.834 4.07031 250.307 4.07031C249.675 4.07031 249.148 4.19401 248.725 4.44141C248.308 4.68229 247.995 5.02083 247.787 5.45703C247.579 5.89323 247.475 6.39453 247.475 6.96094H245.668C245.668 6.16016 245.844 5.42773 246.195 4.76367C246.547 4.09961 247.068 3.57227 247.758 3.18164C248.448 2.78451 249.298 2.58594 250.307 2.58594C251.205 2.58594 251.973 2.74544 252.611 3.06445C253.249 3.37695 253.738 3.81966 254.076 4.39258C254.421 4.95898 254.594 5.62305 254.594 6.38477C254.594 6.80143 254.522 7.22461 254.379 7.6543C254.242 8.07747 254.05 8.50065 253.803 8.92383C253.562 9.34701 253.279 9.76367 252.953 10.1738C252.634 10.584 252.292 10.9876 251.928 11.3848L248.119 15.5156H255.248Z" fill="#9A9797"/>
<path d="M201 148C196.03 148 192 151.976 192 156.882C192 160.842 193.575 170.241 209.078 179.742C209.356 179.911 209.675 180 210 180C210.325 180 210.644 179.911 210.922 179.742C226.425 170.241 228 160.842 228 156.882C228 151.976 223.97 148 219 148C214.03 148 210 153.383 210 153.383C210 153.383 205.97 148 201 148Z" stroke="#6864AE" stroke-width="2" stroke-linecap="round" stroke-linejoin="round"/>
<path d="M7.36914 155.703V170H5.5625V157.959L1.91992 159.287V157.656L7.08594 155.703H7.36914ZM21.6465 166.152C21.6465 167.018 21.4447 167.754 21.041 168.359C20.6439 168.958 20.1035 169.414 19.4199 169.727C18.7428 170.039 17.9779 170.195 17.125 170.195C16.2721 170.195 15.5039 170.039 14.8203 169.727C14.1367 169.414 13.5964 168.958 13.1992 168.359C12.8021 167.754 12.6035 167.018 12.6035 166.152C12.6035 165.586 12.7109 165.068 12.9258 164.6C13.1471 164.124 13.4564 163.711 13.8535 163.359C14.2572 163.008 14.7324 162.738 15.2793 162.549C15.8327 162.354 16.4414 162.256 17.1055 162.256C17.9779 162.256 18.7559 162.425 19.4395 162.764C20.123 163.096 20.6602 163.555 21.0508 164.141C21.4479 164.727 21.6465 165.397 21.6465 166.152ZM19.8301 166.113C19.8301 165.586 19.7161 165.12 19.4883 164.717C19.2604 164.307 18.9414 163.988 18.5312 163.76C18.1211 163.532 17.6458 163.418 17.1055 163.418C16.5521 163.418 16.0736 163.532 15.6699 163.76C15.2728 163.988 14.9635 164.307 14.7422 164.717C14.5208 165.12 14.4102 165.586 14.4102 166.113C14.4102 166.66 14.5176 167.129 14.7324 167.52C14.9538 167.904 15.2663 168.2 15.6699 168.408C16.0801 168.61 16.5651 168.711 17.125 168.711C17.6849 168.711 18.1667 168.61 18.5703 168.408C18.974 168.2 19.2832 167.904 19.498 167.52C19.7194 167.129 19.8301 166.66 19.8301 166.113ZM21.3145 159.482C21.3145 160.173 21.1322 160.794 20.7676 161.348C20.403 161.901 19.9049 162.337 19.2734 162.656C18.6419 162.975 17.9258 163.135 17.125 163.135C16.3112 163.135 15.5853 162.975 14.9473 162.656C14.3158 162.337 13.821 161.901 13.4629 161.348C13.1048 160.794 12.9258 160.173 12.9258 159.482C12.9258 158.656 13.1048 157.952 13.4629 157.373C13.8275 156.794 14.3255 156.351 14.957 156.045C15.5885 155.739 16.3079 155.586 17.1152 155.586C17.929 155.586 18.6517 155.739 19.2832 156.045C19.9147 156.351 20.4095 156.794 20.7676 157.373C21.1322 157.952 21.3145 158.656 21.3145 159.482ZM19.5078 159.512C19.5078 159.036 19.4069 158.617 19.2051 158.252C19.0033 157.887 18.7233 157.601 18.3652 157.393C18.0072 157.178 17.5905 157.07 17.1152 157.07C16.64 157.07 16.2233 157.171 15.8652 157.373C15.5137 157.568 15.237 157.848 15.0352 158.213C14.8398 158.577 14.7422 159.01 14.7422 159.512C14.7422 160 14.8398 160.426 15.0352 160.791C15.237 161.156 15.5169 161.439 15.875 161.641C16.2331 161.842 16.6497 161.943 17.125 161.943C17.6003 161.943 18.0137 161.842 18.3652 161.641C18.7233 161.439 19.0033 161.156 19.2051 160.791C19.4069 160.426 19.5078 160 19.5078 159.512Z" fill="black"/>
<path d="M11.748 198.516V200H2.44141V198.701L7.09961 193.516C7.67253 192.878 8.11523 192.337 8.42773 191.895C8.74674 191.445 8.9681 191.045 9.0918 190.693C9.22201 190.335 9.28711 189.971 9.28711 189.6C9.28711 189.131 9.18945 188.708 8.99414 188.33C8.80534 187.946 8.52539 187.64 8.1543 187.412C7.7832 187.184 7.33398 187.07 6.80664 187.07C6.17513 187.07 5.64779 187.194 5.22461 187.441C4.80794 187.682 4.49544 188.021 4.28711 188.457C4.07878 188.893 3.97461 189.395 3.97461 189.961H2.16797C2.16797 189.16 2.34375 188.428 2.69531 187.764C3.04688 187.1 3.56771 186.572 4.25781 186.182C4.94792 185.785 5.79753 185.586 6.80664 185.586C7.70508 185.586 8.47331 185.745 9.11133 186.064C9.74935 186.377 10.2376 186.82 10.5762 187.393C10.9212 187.959 11.0938 188.623 11.0938 189.385C11.0938 189.801 11.0221 190.225 10.8789 190.654C10.7422 191.077 10.5501 191.501 10.3027 191.924C10.0618 192.347 9.77865 192.764 9.45312 193.174C9.13411 193.584 8.79232 193.988 8.42773 194.385L4.61914 198.516H11.748ZM15.9668 193.232L14.5215 192.861L15.2344 185.781H22.5293V187.451H16.7676L16.3379 191.318C16.5983 191.169 16.9271 191.029 17.3242 190.898C17.7279 190.768 18.1901 190.703 18.7109 190.703C19.3685 190.703 19.9577 190.817 20.4785 191.045C20.9993 191.266 21.4421 191.585 21.8066 192.002C22.1777 192.419 22.4609 192.92 22.6562 193.506C22.8516 194.092 22.9492 194.746 22.9492 195.469C22.9492 196.152 22.8548 196.781 22.666 197.354C22.4837 197.926 22.207 198.428 21.8359 198.857C21.4648 199.281 20.9961 199.609 20.4297 199.844C19.8698 200.078 19.209 200.195 18.4473 200.195C17.8743 200.195 17.3307 200.117 16.8164 199.961C16.3086 199.798 15.8529 199.554 15.4492 199.229C15.0521 198.896 14.7266 198.486 14.4727 197.998C14.2253 197.503 14.069 196.924 14.0039 196.26H15.7227C15.8008 196.794 15.957 197.243 16.1914 197.607C16.4258 197.972 16.7318 198.249 17.1094 198.438C17.4935 198.62 17.9395 198.711 18.4473 198.711C18.877 198.711 19.2578 198.636 19.5898 198.486C19.9219 198.337 20.2018 198.122 20.4297 197.842C20.6576 197.562 20.8301 197.223 20.9473 196.826C21.071 196.429 21.1328 195.983 21.1328 195.488C21.1328 195.039 21.071 194.622 20.9473 194.238C20.8236 193.854 20.638 193.519 20.3906 193.232C20.1497 192.946 19.8535 192.725 19.502 192.568C19.1504 192.406 18.7467 192.324 18.291 192.324C17.6855 192.324 17.2266 192.406 16.9141 192.568C16.6081 192.731 16.2923 192.952 15.9668 193.232Z" fill="black"/>
<path d="M50.748 198.516V200H41.4414V198.701L46.0996 193.516C46.6725 192.878 47.1152 192.337 47.4277 191.895C47.7467 191.445 47.9681 191.045 48.0918 190.693C48.222 190.335 48.2871 189.971 48.2871 189.6C48.2871 189.131 48.1895 188.708 47.9941 188.33C47.8053 187.946 47.5254 187.64 47.1543 187.412C46.7832 187.184 46.334 187.07 45.8066 187.07C45.1751 187.07 44.6478 187.194 44.2246 187.441C43.8079 187.682 43.4954 188.021 43.2871 188.457C43.0788 188.893 42.9746 189.395 42.9746 189.961H41.168C41.168 189.16 41.3438 188.428 41.6953 187.764C42.0469 187.1 42.5677 186.572 43.2578 186.182C43.9479 185.785 44.7975 185.586 45.8066 185.586C46.7051 185.586 47.4733 185.745 48.1113 186.064C48.7493 186.377 49.2376 186.82 49.5762 187.393C49.9212 187.959 50.0938 188.623 50.0938 189.385C50.0938 189.801 50.0221 190.225 49.8789 190.654C49.7422 191.077 49.5501 191.501 49.3027 191.924C49.0618 192.347 48.7786 192.764 48.4531 193.174C48.1341 193.584 47.7923 193.988 47.4277 194.385L43.6191 198.516H50.748ZM59.6152 185.762H59.7715V187.295H59.6152C58.6582 187.295 57.8574 187.451 57.2129 187.764C56.5684 188.07 56.0573 188.483 55.6797 189.004C55.3021 189.518 55.0286 190.098 54.8594 190.742C54.6966 191.387 54.6152 192.041 54.6152 192.705V194.795C54.6152 195.426 54.6901 195.986 54.8398 196.475C54.9896 196.956 55.1947 197.363 55.4551 197.695C55.7155 198.027 56.0085 198.278 56.334 198.447C56.666 198.617 57.0111 198.701 57.3691 198.701C57.7858 198.701 58.1569 198.623 58.4824 198.467C58.8079 198.304 59.0814 198.079 59.3027 197.793C59.5306 197.5 59.7031 197.155 59.8203 196.758C59.9375 196.361 59.9961 195.924 59.9961 195.449C59.9961 195.026 59.944 194.619 59.8398 194.229C59.7357 193.831 59.5762 193.48 59.3613 193.174C59.1465 192.861 58.8763 192.617 58.5508 192.441C58.2318 192.259 57.8509 192.168 57.4082 192.168C56.9069 192.168 56.4382 192.292 56.002 192.539C55.5723 192.78 55.2174 193.099 54.9375 193.496C54.6641 193.887 54.5078 194.313 54.4688 194.775L53.5117 194.766C53.6029 194.036 53.7721 193.415 54.0195 192.9C54.2734 192.38 54.5859 191.956 54.957 191.631C55.3346 191.299 55.7546 191.058 56.2168 190.908C56.6855 190.752 57.1803 190.674 57.7012 190.674C58.4108 190.674 59.0228 190.807 59.5371 191.074C60.0514 191.341 60.4746 191.699 60.8066 192.148C61.1387 192.591 61.3828 193.092 61.5391 193.652C61.7018 194.206 61.7832 194.775 61.7832 195.361C61.7832 196.032 61.6888 196.66 61.5 197.246C61.3112 197.832 61.028 198.346 60.6504 198.789C60.2793 199.232 59.8203 199.577 59.2734 199.824C58.7266 200.072 58.0918 200.195 57.3691 200.195C56.6009 200.195 55.9303 200.039 55.3574 199.727C54.7845 199.408 54.3092 198.984 53.9316 198.457C53.554 197.93 53.2708 197.344 53.082 196.699C52.8932 196.055 52.7988 195.4 52.7988 194.736V193.887C52.7988 192.884 52.8997 191.901 53.1016 190.938C53.3034 189.974 53.6517 189.102 54.1465 188.32C54.6478 187.539 55.3411 186.917 56.2266 186.455C57.112 185.993 58.2415 185.762 59.6152 185.762Z" fill="black"/>
<path d="M90.748 198.516V200H81.4414V198.701L86.0996 193.516C86.6725 192.878 87.1152 192.337 87.4277 191.895C87.7467 191.445 87.9681 191.045 88.0918 190.693C88.222 190.335 88.2871 189.971 88.2871 189.6C88.2871 189.131 88.1895 188.708 87.9941 188.33C87.8053 187.946 87.5254 187.64 87.1543 187.412C86.7832 187.184 86.334 187.07 85.8066 187.07C85.1751 187.07 84.6478 187.194 84.2246 187.441C83.8079 187.682 83.4954 188.021 83.2871 188.457C83.0788 188.893 82.9746 189.395 82.9746 189.961H81.168C81.168 189.16 81.3438 188.428 81.6953 187.764C82.0469 187.1 82.5677 186.572 83.2578 186.182C83.9479 185.785 84.7975 185.586 85.8066 185.586C86.7051 185.586 87.4733 185.745 88.1113 186.064C88.7493 186.377 89.2376 186.82 89.5762 187.393C89.9212 187.959 90.0938 188.623 90.0938 189.385C90.0938 189.801 90.0221 190.225 89.8789 190.654C89.7422 191.077 89.5501 191.501 89.3027 191.924C89.0618 192.347 88.7786 192.764 88.4531 193.174C88.1341 193.584 87.7923 193.988 87.4277 194.385L83.6191 198.516H90.748ZM101.871 185.781V186.797L95.9824 200H94.0781L99.957 187.266H92.2617V185.781H101.871Z" fill="black"/>
<path d="M130.748 198.516V200H121.441V198.701L126.1 193.516C126.673 192.878 127.115 192.337 127.428 191.895C127.747 191.445 127.968 191.045 128.092 190.693C128.222 190.335 128.287 189.971 128.287 189.6C128.287 189.131 128.189 188.708 127.994 188.33C127.805 187.946 127.525 187.64 127.154 187.412C126.783 187.184 126.334 187.07 125.807 187.07C125.175 187.07 124.648 187.194 124.225 187.441C123.808 187.682 123.495 188.021 123.287 188.457C123.079 188.893 122.975 189.395 122.975 189.961H121.168C121.168 189.16 121.344 188.428 121.695 187.764C122.047 187.1 122.568 186.572 123.258 186.182C123.948 185.785 124.798 185.586 125.807 185.586C126.705 185.586 127.473 185.745 128.111 186.064C128.749 186.377 129.238 186.82 129.576 187.393C129.921 187.959 130.094 188.623 130.094 189.385C130.094 189.801 130.022 190.225 129.879 190.654C129.742 191.077 129.55 191.501 129.303 191.924C129.062 192.347 128.779 192.764 128.453 193.174C128.134 193.584 127.792 193.988 127.428 194.385L123.619 198.516H130.748ZM141.646 196.152C141.646 197.018 141.445 197.754 141.041 198.359C140.644 198.958 140.104 199.414 139.42 199.727C138.743 200.039 137.978 200.195 137.125 200.195C136.272 200.195 135.504 200.039 134.82 199.727C134.137 199.414 133.596 198.958 133.199 198.359C132.802 197.754 132.604 197.018 132.604 196.152C132.604 195.586 132.711 195.068 132.926 194.6C133.147 194.124 133.456 193.711 133.854 193.359C134.257 193.008 134.732 192.738 135.279 192.549C135.833 192.354 136.441 192.256 137.105 192.256C137.978 192.256 138.756 192.425 139.439 192.764C140.123 193.096 140.66 193.555 141.051 194.141C141.448 194.727 141.646 195.397 141.646 196.152ZM139.83 196.113C139.83 195.586 139.716 195.12 139.488 194.717C139.26 194.307 138.941 193.988 138.531 193.76C138.121 193.532 137.646 193.418 137.105 193.418C136.552 193.418 136.074 193.532 135.67 193.76C135.273 193.988 134.964 194.307 134.742 194.717C134.521 195.12 134.41 195.586 134.41 196.113C134.41 196.66 134.518 197.129 134.732 197.52C134.954 197.904 135.266 198.2 135.67 198.408C136.08 198.61 136.565 198.711 137.125 198.711C137.685 198.711 138.167 198.61 138.57 198.408C138.974 198.2 139.283 197.904 139.498 197.52C139.719 197.129 139.83 196.66 139.83 196.113ZM141.314 189.482C141.314 190.173 141.132 190.794 140.768 191.348C140.403 191.901 139.905 192.337 139.273 192.656C138.642 192.975 137.926 193.135 137.125 193.135C136.311 193.135 135.585 192.975 134.947 192.656C134.316 192.337 133.821 191.901 133.463 191.348C133.105 190.794 132.926 190.173 132.926 189.482C132.926 188.656 133.105 187.952 133.463 187.373C133.827 186.794 134.326 186.351 134.957 186.045C135.589 185.739 136.308 185.586 137.115 185.586C137.929 185.586 138.652 185.739 139.283 186.045C139.915 186.351 140.41 186.794 140.768 187.373C141.132 187.952 141.314 188.656 141.314 189.482ZM139.508 189.512C139.508 189.036 139.407 188.617 139.205 188.252C139.003 187.887 138.723 187.601 138.365 187.393C138.007 187.178 137.59 187.07 137.115 187.07C136.64 187.07 136.223 187.171 135.865 187.373C135.514 187.568 135.237 187.848 135.035 188.213C134.84 188.577 134.742 189.01 134.742 189.512C134.742 190 134.84 190.426 135.035 190.791C135.237 191.156 135.517 191.439 135.875 191.641C136.233 191.842 136.65 191.943 137.125 191.943C137.6 191.943 138.014 191.842 138.365 191.641C138.723 191.439 139.003 191.156 139.205 190.791C139.407 190.426 139.508 190 139.508 189.512Z" fill="black"/>
<path d="M168.748 198.516V200H159.441V198.701L164.1 193.516C164.673 192.878 165.115 192.337 165.428 191.895C165.747 191.445 165.968 191.045 166.092 190.693C166.222 190.335 166.287 189.971 166.287 189.6C166.287 189.131 166.189 188.708 165.994 188.33C165.805 187.946 165.525 187.64 165.154 187.412C164.783 187.184 164.334 187.07 163.807 187.07C163.175 187.07 162.648 187.194 162.225 187.441C161.808 187.682 161.495 188.021 161.287 188.457C161.079 188.893 160.975 189.395 160.975 189.961H159.168C159.168 189.16 159.344 188.428 159.695 187.764C160.047 187.1 160.568 186.572 161.258 186.182C161.948 185.785 162.798 185.586 163.807 185.586C164.705 185.586 165.473 185.745 166.111 186.064C166.749 186.377 167.238 186.82 167.576 187.393C167.921 187.959 168.094 188.623 168.094 189.385C168.094 189.801 168.022 190.225 167.879 190.654C167.742 191.077 167.55 191.501 167.303 191.924C167.062 192.347 166.779 192.764 166.453 193.174C166.134 193.584 165.792 193.988 165.428 194.385L161.619 198.516H168.748ZM172.479 198.486H172.664C173.706 198.486 174.552 198.34 175.203 198.047C175.854 197.754 176.355 197.36 176.707 196.865C177.059 196.37 177.299 195.814 177.43 195.195C177.56 194.57 177.625 193.929 177.625 193.271V191.094C177.625 190.449 177.55 189.876 177.4 189.375C177.257 188.874 177.055 188.454 176.795 188.115C176.541 187.777 176.251 187.52 175.926 187.344C175.6 187.168 175.255 187.08 174.891 187.08C174.474 187.08 174.1 187.165 173.768 187.334C173.442 187.497 173.165 187.728 172.938 188.027C172.716 188.327 172.547 188.678 172.43 189.082C172.312 189.486 172.254 189.925 172.254 190.4C172.254 190.824 172.306 191.234 172.41 191.631C172.514 192.028 172.674 192.386 172.889 192.705C173.104 193.024 173.37 193.278 173.689 193.467C174.015 193.649 174.396 193.74 174.832 193.74C175.236 193.74 175.613 193.662 175.965 193.506C176.323 193.343 176.639 193.125 176.912 192.852C177.192 192.572 177.413 192.256 177.576 191.904C177.745 191.553 177.843 191.185 177.869 190.801H178.729C178.729 191.341 178.621 191.875 178.406 192.402C178.198 192.923 177.905 193.398 177.527 193.828C177.15 194.258 176.707 194.603 176.199 194.863C175.691 195.117 175.138 195.244 174.539 195.244C173.836 195.244 173.227 195.107 172.713 194.834C172.199 194.561 171.775 194.196 171.443 193.74C171.118 193.285 170.874 192.777 170.711 192.217C170.555 191.65 170.477 191.077 170.477 190.498C170.477 189.821 170.571 189.186 170.76 188.594C170.949 188.001 171.229 187.48 171.6 187.031C171.971 186.576 172.43 186.221 172.977 185.967C173.53 185.713 174.168 185.586 174.891 185.586C175.704 185.586 176.398 185.749 176.971 186.074C177.544 186.4 178.009 186.836 178.367 187.383C178.732 187.93 178.999 188.545 179.168 189.229C179.337 189.912 179.422 190.615 179.422 191.338V191.992C179.422 192.728 179.373 193.477 179.275 194.238C179.184 194.993 179.005 195.716 178.738 196.406C178.478 197.096 178.097 197.715 177.596 198.262C177.094 198.802 176.44 199.232 175.633 199.551C174.832 199.863 173.842 200.02 172.664 200.02H172.479V198.486Z" fill="black"/>
<path d="M202.068 192.002H203.357C203.989 192.002 204.51 191.898 204.92 191.689C205.337 191.475 205.646 191.185 205.848 190.82C206.056 190.449 206.16 190.033 206.16 189.57C206.16 189.023 206.069 188.564 205.887 188.193C205.704 187.822 205.431 187.542 205.066 187.354C204.702 187.165 204.24 187.07 203.68 187.07C203.172 187.07 202.723 187.171 202.332 187.373C201.948 187.568 201.645 187.848 201.424 188.213C201.209 188.577 201.102 189.007 201.102 189.502H199.295C199.295 188.779 199.477 188.122 199.842 187.529C200.206 186.937 200.717 186.465 201.375 186.113C202.039 185.762 202.807 185.586 203.68 185.586C204.539 185.586 205.291 185.739 205.936 186.045C206.58 186.344 207.081 186.794 207.439 187.393C207.798 187.985 207.977 188.724 207.977 189.609C207.977 189.967 207.892 190.352 207.723 190.762C207.56 191.165 207.303 191.543 206.951 191.895C206.606 192.246 206.157 192.536 205.604 192.764C205.05 192.985 204.386 193.096 203.611 193.096H202.068V192.002ZM202.068 193.486V192.402H203.611C204.516 192.402 205.265 192.51 205.857 192.725C206.45 192.939 206.915 193.226 207.254 193.584C207.599 193.942 207.84 194.336 207.977 194.766C208.12 195.189 208.191 195.612 208.191 196.035C208.191 196.699 208.077 197.288 207.85 197.803C207.628 198.317 207.312 198.753 206.902 199.111C206.499 199.469 206.023 199.74 205.477 199.922C204.93 200.104 204.334 200.195 203.689 200.195C203.071 200.195 202.488 200.107 201.941 199.932C201.401 199.756 200.923 199.502 200.506 199.17C200.089 198.831 199.764 198.418 199.529 197.93C199.295 197.435 199.178 196.872 199.178 196.24H200.984C200.984 196.735 201.092 197.168 201.307 197.539C201.528 197.91 201.84 198.2 202.244 198.408C202.654 198.61 203.136 198.711 203.689 198.711C204.243 198.711 204.718 198.617 205.115 198.428C205.519 198.232 205.828 197.939 206.043 197.549C206.264 197.158 206.375 196.667 206.375 196.074C206.375 195.482 206.251 194.997 206.004 194.619C205.757 194.235 205.405 193.952 204.949 193.77C204.5 193.581 203.969 193.486 203.357 193.486H202.068ZM219.607 191.758V193.926C219.607 195.091 219.503 196.074 219.295 196.875C219.087 197.676 218.787 198.32 218.396 198.809C218.006 199.297 217.534 199.652 216.98 199.873C216.434 200.088 215.815 200.195 215.125 200.195C214.578 200.195 214.074 200.127 213.611 199.99C213.149 199.854 212.732 199.635 212.361 199.336C211.997 199.03 211.684 198.633 211.424 198.145C211.163 197.656 210.965 197.064 210.828 196.367C210.691 195.671 210.623 194.857 210.623 193.926V191.758C210.623 190.592 210.727 189.616 210.936 188.828C211.15 188.04 211.453 187.409 211.844 186.934C212.234 186.452 212.703 186.107 213.25 185.898C213.803 185.69 214.422 185.586 215.105 185.586C215.659 185.586 216.167 185.654 216.629 185.791C217.098 185.921 217.514 186.133 217.879 186.426C218.243 186.712 218.553 187.096 218.807 187.578C219.067 188.053 219.266 188.636 219.402 189.326C219.539 190.016 219.607 190.827 219.607 191.758ZM217.791 194.219V191.455C217.791 190.817 217.752 190.257 217.674 189.775C217.602 189.287 217.495 188.87 217.352 188.525C217.208 188.18 217.026 187.9 216.805 187.686C216.59 187.471 216.339 187.314 216.053 187.217C215.773 187.113 215.457 187.061 215.105 187.061C214.676 187.061 214.295 187.142 213.963 187.305C213.631 187.461 213.351 187.712 213.123 188.057C212.902 188.402 212.732 188.854 212.615 189.414C212.498 189.974 212.439 190.654 212.439 191.455V194.219C212.439 194.857 212.475 195.42 212.547 195.908C212.625 196.396 212.739 196.82 212.889 197.178C213.038 197.529 213.221 197.819 213.436 198.047C213.65 198.275 213.898 198.444 214.178 198.555C214.464 198.659 214.78 198.711 215.125 198.711C215.568 198.711 215.955 198.626 216.287 198.457C216.619 198.288 216.896 198.024 217.117 197.666C217.345 197.301 217.514 196.836 217.625 196.27C217.736 195.697 217.791 195.013 217.791 194.219Z" fill="black"/>
<path d="M239.068 192.002H240.357C240.989 192.002 241.51 191.898 241.92 191.689C242.337 191.475 242.646 191.185 242.848 190.82C243.056 190.449 243.16 190.033 243.16 189.57C243.16 189.023 243.069 188.564 242.887 188.193C242.704 187.822 242.431 187.542 242.066 187.354C241.702 187.165 241.24 187.07 240.68 187.07C240.172 187.07 239.723 187.171 239.332 187.373C238.948 187.568 238.645 187.848 238.424 188.213C238.209 188.577 238.102 189.007 238.102 189.502H236.295C236.295 188.779 236.477 188.122 236.842 187.529C237.206 186.937 237.717 186.465 238.375 186.113C239.039 185.762 239.807 185.586 240.68 185.586C241.539 185.586 242.291 185.739 242.936 186.045C243.58 186.344 244.081 186.794 244.439 187.393C244.798 187.985 244.977 188.724 244.977 189.609C244.977 189.967 244.892 190.352 244.723 190.762C244.56 191.165 244.303 191.543 243.951 191.895C243.606 192.246 243.157 192.536 242.604 192.764C242.05 192.985 241.386 193.096 240.611 193.096H239.068V192.002ZM239.068 193.486V192.402H240.611C241.516 192.402 242.265 192.51 242.857 192.725C243.45 192.939 243.915 193.226 244.254 193.584C244.599 193.942 244.84 194.336 244.977 194.766C245.12 195.189 245.191 195.612 245.191 196.035C245.191 196.699 245.077 197.288 244.85 197.803C244.628 198.317 244.312 198.753 243.902 199.111C243.499 199.469 243.023 199.74 242.477 199.922C241.93 200.104 241.334 200.195 240.689 200.195C240.071 200.195 239.488 200.107 238.941 199.932C238.401 199.756 237.923 199.502 237.506 199.17C237.089 198.831 236.764 198.418 236.529 197.93C236.295 197.435 236.178 196.872 236.178 196.24H237.984C237.984 196.735 238.092 197.168 238.307 197.539C238.528 197.91 238.84 198.2 239.244 198.408C239.654 198.61 240.136 198.711 240.689 198.711C241.243 198.711 241.718 198.617 242.115 198.428C242.519 198.232 242.828 197.939 243.043 197.549C243.264 197.158 243.375 196.667 243.375 196.074C243.375 195.482 243.251 194.997 243.004 194.619C242.757 194.235 242.405 193.952 241.949 193.77C241.5 193.581 240.969 193.486 240.357 193.486H239.068ZM253.619 185.703V200H251.812V187.959L248.17 189.287V187.656L253.336 185.703H253.619Z" fill="black"/>
<path d="M239.068 192.002H240.357C240.989 192.002 241.51 191.898 241.92 191.689C242.337 191.475 242.646 191.185 242.848 190.82C243.056 190.449 243.16 190.033 243.16 189.57C243.16 189.023 243.069 188.564 242.887 188.193C242.704 187.822 242.431 187.542 242.066 187.354C241.702 187.165 241.24 187.07 240.68 187.07C240.172 187.07 239.723 187.171 239.332 187.373C238.948 187.568 238.645 187.848 238.424 188.213C238.209 188.577 238.102 189.007 238.102 189.502H236.295C236.295 188.779 236.477 188.122 236.842 187.529C237.206 186.937 237.717 186.465 238.375 186.113C239.039 185.762 239.807 185.586 240.68 185.586C241.539 185.586 242.291 185.739 242.936 186.045C243.58 186.344 244.081 186.794 244.439 187.393C244.798 187.985 244.977 188.724 244.977 189.609C244.977 189.967 244.892 190.352 244.723 190.762C244.56 191.165 244.303 191.543 243.951 191.895C243.606 192.246 243.157 192.536 242.604 192.764C242.05 192.985 241.386 193.096 240.611 193.096H239.068V192.002ZM239.068 193.486V192.402H240.611C241.516 192.402 242.265 192.51 242.857 192.725C243.45 192.939 243.915 193.226 244.254 193.584C244.599 193.942 244.84 194.336 244.977 194.766C245.12 195.189 245.191 195.612 245.191 196.035C245.191 196.699 245.077 197.288 244.85 197.803C244.628 198.317 244.312 198.753 243.902 199.111C243.499 199.469 243.023 199.74 242.477 199.922C241.93 200.104 241.334 200.195 240.689 200.195C240.071 200.195 239.488 200.107 238.941 199.932C238.401 199.756 237.923 199.502 237.506 199.17C237.089 198.831 236.764 198.418 236.529 197.93C236.295 197.435 236.178 196.872 236.178 196.24H237.984C237.984 196.735 238.092 197.168 238.307 197.539C238.528 197.91 238.84 198.2 239.244 198.408C239.654 198.61 240.136 198.711 240.689 198.711C241.243 198.711 241.718 198.617 242.115 198.428C242.519 198.232 242.828 197.939 243.043 197.549C243.264 197.158 243.375 196.667 243.375 196.074C243.375 195.482 243.251 194.997 243.004 194.619C242.757 194.235 242.405 193.952 241.949 193.77C241.5 193.581 240.969 193.486 240.357 193.486H239.068ZM253.619 185.703V200H251.812V187.959L248.17 189.287V187.656L253.336 185.703H253.619Z" fill="black"/>
<path d="M48.3691 155.703V170H46.5625V157.959L42.9199 159.287V157.656L48.0859 155.703H48.3691ZM55.4785 168.486H55.6641C56.7057 168.486 57.5521 168.34 58.2031 168.047C58.8542 167.754 59.3555 167.36 59.707 166.865C60.0586 166.37 60.2995 165.814 60.4297 165.195C60.5599 164.57 60.625 163.929 60.625 163.271V161.094C60.625 160.449 60.5501 159.876 60.4004 159.375C60.2572 158.874 60.0553 158.454 59.7949 158.115C59.541 157.777 59.2513 157.52 58.9258 157.344C58.6003 157.168 58.2552 157.08 57.8906 157.08C57.474 157.08 57.0996 157.165 56.7676 157.334C56.4421 157.497 56.1654 157.728 55.9375 158.027C55.7161 158.327 55.5469 158.678 55.4297 159.082C55.3125 159.486 55.2539 159.925 55.2539 160.4C55.2539 160.824 55.306 161.234 55.4102 161.631C55.5143 162.028 55.6738 162.386 55.8887 162.705C56.1035 163.024 56.3704 163.278 56.6895 163.467C57.015 163.649 57.3958 163.74 57.832 163.74C58.2357 163.74 58.6133 163.662 58.9648 163.506C59.3229 163.343 59.6387 163.125 59.9121 162.852C60.1921 162.572 60.4134 162.256 60.5762 161.904C60.7454 161.553 60.8431 161.185 60.8691 160.801H61.7285C61.7285 161.341 61.6211 161.875 61.4062 162.402C61.1979 162.923 60.9049 163.398 60.5273 163.828C60.1497 164.258 59.707 164.603 59.1992 164.863C58.6914 165.117 58.138 165.244 57.5391 165.244C56.8359 165.244 56.2272 165.107 55.7129 164.834C55.1986 164.561 54.7754 164.196 54.4434 163.74C54.1178 163.285 53.8737 162.777 53.7109 162.217C53.5547 161.65 53.4766 161.077 53.4766 160.498C53.4766 159.821 53.571 159.186 53.7598 158.594C53.9486 158.001 54.2285 157.48 54.5996 157.031C54.9707 156.576 55.4297 156.221 55.9766 155.967C56.5299 155.713 57.168 155.586 57.8906 155.586C58.7044 155.586 59.3978 155.749 59.9707 156.074C60.5436 156.4 61.0091 156.836 61.3672 157.383C61.7318 157.93 61.9987 158.545 62.168 159.229C62.3372 159.912 62.4219 160.615 62.4219 161.338V161.992C62.4219 162.728 62.373 163.477 62.2754 164.238C62.1842 164.993 62.0052 165.716 61.7383 166.406C61.4779 167.096 61.097 167.715 60.5957 168.262C60.0944 168.802 59.4401 169.232 58.6328 169.551C57.832 169.863 56.8424 170.02 55.6641 170.02H55.4785V168.486Z" fill="black"/>
<path d="M90.748 168.516V170H81.4414V168.701L86.0996 163.516C86.6725 162.878 87.1152 162.337 87.4277 161.895C87.7467 161.445 87.9681 161.045 88.0918 160.693C88.222 160.335 88.2871 159.971 88.2871 159.6C88.2871 159.131 88.1895 158.708 87.9941 158.33C87.8053 157.946 87.5254 157.64 87.1543 157.412C86.7832 157.184 86.334 157.07 85.8066 157.07C85.1751 157.07 84.6478 157.194 84.2246 157.441C83.8079 157.682 83.4954 158.021 83.2871 158.457C83.0788 158.893 82.9746 159.395 82.9746 159.961H81.168C81.168 159.16 81.3438 158.428 81.6953 157.764C82.0469 157.1 82.5677 156.572 83.2578 156.182C83.9479 155.785 84.7975 155.586 85.8066 155.586C86.7051 155.586 87.4733 155.745 88.1113 156.064C88.7493 156.377 89.2376 156.82 89.5762 157.393C89.9212 157.959 90.0938 158.623 90.0938 159.385C90.0938 159.801 90.0221 160.225 89.8789 160.654C89.7422 161.077 89.5501 161.501 89.3027 161.924C89.0618 162.347 88.7786 162.764 88.4531 163.174C88.1341 163.584 87.7923 163.988 87.4277 164.385L83.6191 168.516H90.748ZM101.607 161.758V163.926C101.607 165.091 101.503 166.074 101.295 166.875C101.087 167.676 100.787 168.32 100.396 168.809C100.006 169.297 99.5339 169.652 98.9805 169.873C98.4336 170.088 97.8151 170.195 97.125 170.195C96.5781 170.195 96.0736 170.127 95.6113 169.99C95.1491 169.854 94.7324 169.635 94.3613 169.336C93.9967 169.03 93.6842 168.633 93.4238 168.145C93.1634 167.656 92.9648 167.064 92.8281 166.367C92.6914 165.671 92.623 164.857 92.623 163.926V161.758C92.623 160.592 92.7272 159.616 92.9355 158.828C93.1504 158.04 93.4531 157.409 93.8438 156.934C94.2344 156.452 94.7031 156.107 95.25 155.898C95.8034 155.69 96.4219 155.586 97.1055 155.586C97.6589 155.586 98.1667 155.654 98.6289 155.791C99.0977 155.921 99.5143 156.133 99.8789 156.426C100.243 156.712 100.553 157.096 100.807 157.578C101.067 158.053 101.266 158.636 101.402 159.326C101.539 160.016 101.607 160.827 101.607 161.758ZM99.791 164.219V161.455C99.791 160.817 99.752 160.257 99.6738 159.775C99.6022 159.287 99.4948 158.87 99.3516 158.525C99.2083 158.18 99.026 157.9 98.8047 157.686C98.5898 157.471 98.3392 157.314 98.0527 157.217C97.7728 157.113 97.457 157.061 97.1055 157.061C96.6758 157.061 96.2949 157.142 95.9629 157.305C95.6309 157.461 95.3509 157.712 95.123 158.057C94.9017 158.402 94.7324 158.854 94.6152 159.414C94.498 159.974 94.4395 160.654 94.4395 161.455V164.219C94.4395 164.857 94.4753 165.42 94.5469 165.908C94.625 166.396 94.7389 166.82 94.8887 167.178C95.0384 167.529 95.2207 167.819 95.4355 168.047C95.6504 168.275 95.8978 168.444 96.1777 168.555C96.4642 168.659 96.7799 168.711 97.125 168.711C97.5677 168.711 97.9551 168.626 98.2871 168.457C98.6191 168.288 98.8958 168.024 99.1172 167.666C99.3451 167.301 99.5143 166.836 99.625 166.27C99.7357 165.697 99.791 165.013 99.791 164.219Z" fill="black"/>
<path d="M130.748 168.516V170H121.441V168.701L126.1 163.516C126.673 162.878 127.115 162.337 127.428 161.895C127.747 161.445 127.968 161.045 128.092 160.693C128.222 160.335 128.287 159.971 128.287 159.6C128.287 159.131 128.189 158.708 127.994 158.33C127.805 157.946 127.525 157.64 127.154 157.412C126.783 157.184 126.334 157.07 125.807 157.07C125.175 157.07 124.648 157.194 124.225 157.441C123.808 157.682 123.495 158.021 123.287 158.457C123.079 158.893 122.975 159.395 122.975 159.961H121.168C121.168 159.16 121.344 158.428 121.695 157.764C122.047 157.1 122.568 156.572 123.258 156.182C123.948 155.785 124.798 155.586 125.807 155.586C126.705 155.586 127.473 155.745 128.111 156.064C128.749 156.377 129.238 156.82 129.576 157.393C129.921 157.959 130.094 158.623 130.094 159.385C130.094 159.801 130.022 160.225 129.879 160.654C129.742 161.077 129.55 161.501 129.303 161.924C129.062 162.347 128.779 162.764 128.453 163.174C128.134 163.584 127.792 163.988 127.428 164.385L123.619 168.516H130.748ZM138.619 155.703V170H136.812V157.959L133.17 159.287V157.656L138.336 155.703H138.619Z" fill="black"/>
<path d="M167.748 168.516V170H158.441V168.701L163.1 163.516C163.673 162.878 164.115 162.337 164.428 161.895C164.747 161.445 164.968 161.045 165.092 160.693C165.222 160.335 165.287 159.971 165.287 159.6C165.287 159.131 165.189 158.708 164.994 158.33C164.805 157.946 164.525 157.64 164.154 157.412C163.783 157.184 163.334 157.07 162.807 157.07C162.175 157.07 161.648 157.194 161.225 157.441C160.808 157.682 160.495 158.021 160.287 158.457C160.079 158.893 159.975 159.395 159.975 159.961H158.168C158.168 159.16 158.344 158.428 158.695 157.764C159.047 157.1 159.568 156.572 160.258 156.182C160.948 155.785 161.798 155.586 162.807 155.586C163.705 155.586 164.473 155.745 165.111 156.064C165.749 156.377 166.238 156.82 166.576 157.393C166.921 157.959 167.094 158.623 167.094 159.385C167.094 159.801 167.022 160.225 166.879 160.654C166.742 161.077 166.55 161.501 166.303 161.924C166.062 162.347 165.779 162.764 165.453 163.174C165.134 163.584 164.792 163.988 164.428 164.385L160.619 168.516H167.748ZM178.998 168.516V170H169.691V168.701L174.35 163.516C174.923 162.878 175.365 162.337 175.678 161.895C175.997 161.445 176.218 161.045 176.342 160.693C176.472 160.335 176.537 159.971 176.537 159.6C176.537 159.131 176.439 158.708 176.244 158.33C176.055 157.946 175.775 157.64 175.404 157.412C175.033 157.184 174.584 157.07 174.057 157.07C173.425 157.07 172.898 157.194 172.475 157.441C172.058 157.682 171.745 158.021 171.537 158.457C171.329 158.893 171.225 159.395 171.225 159.961H169.418C169.418 159.16 169.594 158.428 169.945 157.764C170.297 157.1 170.818 156.572 171.508 156.182C172.198 155.785 173.048 155.586 174.057 155.586C174.955 155.586 175.723 155.745 176.361 156.064C176.999 156.377 177.488 156.82 177.826 157.393C178.171 157.959 178.344 158.623 178.344 159.385C178.344 159.801 178.272 160.225 178.129 160.654C177.992 161.077 177.8 161.501 177.553 161.924C177.312 162.347 177.029 162.764 176.703 163.174C176.384 163.584 176.042 163.988 175.678 164.385L171.869 168.516H178.998Z" fill="black"/>
<path d="M208.719 167.803V170H198.992V168.125L203.592 163.193C204.054 162.679 204.419 162.227 204.686 161.836C204.952 161.439 205.145 161.084 205.262 160.771C205.385 160.452 205.447 160.15 205.447 159.863C205.447 159.434 205.376 159.066 205.232 158.76C205.089 158.447 204.878 158.206 204.598 158.037C204.324 157.868 203.986 157.783 203.582 157.783C203.152 157.783 202.781 157.887 202.469 158.096C202.163 158.304 201.928 158.594 201.766 158.965C201.609 159.336 201.531 159.756 201.531 160.225H198.709C198.709 159.378 198.911 158.604 199.314 157.9C199.718 157.191 200.288 156.628 201.023 156.211C201.759 155.788 202.632 155.576 203.641 155.576C204.637 155.576 205.477 155.739 206.16 156.064C206.85 156.383 207.371 156.846 207.723 157.451C208.081 158.05 208.26 158.766 208.26 159.6C208.26 160.068 208.185 160.527 208.035 160.977C207.885 161.419 207.671 161.862 207.391 162.305C207.117 162.741 206.785 163.184 206.395 163.633C206.004 164.082 205.571 164.548 205.096 165.029L202.625 167.803H208.719ZM213.357 161.67H214.861C215.343 161.67 215.74 161.589 216.053 161.426C216.365 161.257 216.596 161.022 216.746 160.723C216.902 160.417 216.98 160.062 216.98 159.658C216.98 159.294 216.909 158.971 216.766 158.691C216.629 158.405 216.417 158.184 216.131 158.027C215.844 157.865 215.483 157.783 215.047 157.783C214.702 157.783 214.383 157.852 214.09 157.988C213.797 158.125 213.562 158.317 213.387 158.564C213.211 158.812 213.123 159.111 213.123 159.463H210.301C210.301 158.682 210.509 158.001 210.926 157.422C211.349 156.842 211.915 156.39 212.625 156.064C213.335 155.739 214.116 155.576 214.969 155.576C215.932 155.576 216.775 155.732 217.498 156.045C218.221 156.351 218.784 156.803 219.188 157.402C219.591 158.001 219.793 158.743 219.793 159.629C219.793 160.078 219.689 160.514 219.48 160.938C219.272 161.354 218.973 161.732 218.582 162.07C218.198 162.402 217.729 162.669 217.176 162.871C216.622 163.066 216.001 163.164 215.311 163.164H213.357V161.67ZM213.357 163.809V162.354H215.311C216.085 162.354 216.766 162.441 217.352 162.617C217.938 162.793 218.429 163.047 218.826 163.379C219.223 163.704 219.523 164.092 219.725 164.541C219.926 164.984 220.027 165.475 220.027 166.016C220.027 166.68 219.9 167.272 219.646 167.793C219.393 168.307 219.035 168.743 218.572 169.102C218.117 169.46 217.583 169.733 216.971 169.922C216.359 170.104 215.691 170.195 214.969 170.195C214.37 170.195 213.781 170.114 213.201 169.951C212.628 169.782 212.107 169.531 211.639 169.199C211.176 168.861 210.805 168.438 210.525 167.93C210.252 167.415 210.115 166.807 210.115 166.104H212.938C212.938 166.468 213.029 166.794 213.211 167.08C213.393 167.367 213.644 167.591 213.963 167.754C214.288 167.917 214.65 167.998 215.047 167.998C215.496 167.998 215.88 167.917 216.199 167.754C216.525 167.585 216.772 167.35 216.941 167.051C217.117 166.745 217.205 166.39 217.205 165.986C217.205 165.465 217.111 165.049 216.922 164.736C216.733 164.417 216.463 164.183 216.111 164.033C215.76 163.883 215.343 163.809 214.861 163.809H213.357Z" fill="black"/>
<path d="M244.748 168.516V170H235.441V168.701L240.1 163.516C240.673 162.878 241.115 162.337 241.428 161.895C241.747 161.445 241.968 161.045 242.092 160.693C242.222 160.335 242.287 159.971 242.287 159.6C242.287 159.131 242.189 158.708 241.994 158.33C241.805 157.946 241.525 157.64 241.154 157.412C240.783 157.184 240.334 157.07 239.807 157.07C239.175 157.07 238.648 157.194 238.225 157.441C237.808 157.682 237.495 158.021 237.287 158.457C237.079 158.893 236.975 159.395 236.975 159.961H235.168C235.168 159.16 235.344 158.428 235.695 157.764C236.047 157.1 236.568 156.572 237.258 156.182C237.948 155.785 238.798 155.586 239.807 155.586C240.705 155.586 241.473 155.745 242.111 156.064C242.749 156.377 243.238 156.82 243.576 157.393C243.921 157.959 244.094 158.623 244.094 159.385C244.094 159.801 244.022 160.225 243.879 160.654C243.742 161.077 243.55 161.501 243.303 161.924C243.062 162.347 242.779 162.764 242.453 163.174C242.134 163.584 241.792 163.988 241.428 164.385L237.619 168.516H244.748ZM256.291 165.215V166.699H246.018V165.635L252.385 155.781H253.859L252.277 158.633L248.068 165.215H256.291ZM254.309 155.781V170H252.502V155.781H254.309Z" fill="black"/>
</svg>
