<svg width="208" height="549" viewBox="0 0 208 549" fill="none" xmlns="http://www.w3.org/2000/svg">
<path d="M331 296C331 399.277 270.782 548.5 196.5 548.5C122.218 548.5 108.5 393 86 296C86 192.723 122.218 109 196.5 109C270.782 109 331 192.723 331 296Z" fill="#C3C2E1"/>
<path d="M19.1671 112.623C39.9315 88.6828 91.6027 59.1164 198.757 27.9557C254.7 11.6876 309 55.3148 309 113.574L309 313.852C309 320.651 307.706 327.389 305.188 333.705C295.818 357.203 271.295 370.95 246.361 366.684L189.6 356.973C179.135 355.182 168.437 355.237 157.991 357.134L127.046 362.755C89.7911 369.522 52.2394 352.513 32.7556 320.046L17.3248 294.333C6.14524 275.705 1.99942 253.691 5.63681 232.272L9.23327 211.094C14.7057 178.869 -2.2498 137.315 19.1671 112.623Z" stroke="#8C72B3" stroke-width="3"/>
</svg>
