<svg width="197" height="568" viewBox="0 0 197 568" fill="none" xmlns="http://www.w3.org/2000/svg">
<g clip-path="url(#clip0_103_10)">
<path d="M277 315C277 418.277 216.782 567.5 142.5 567.5C68.2177 567.5 54.5 412 32 315C32 211.723 68.2177 128 142.5 128C216.782 128 277 211.723 277 315Z" fill="#C3C2E1"/>
<path d="M16.1671 86.6228C36.9315 62.6828 88.6027 33.1164 195.757 1.95566C251.7 -14.3124 306 29.3148 306 87.5743L306 287.852C306 294.651 304.706 301.389 302.188 307.705C292.818 331.203 268.295 344.95 243.361 340.684L186.6 330.973C176.135 329.182 165.437 329.237 154.991 331.134L124.046 336.755C86.7911 343.522 49.2394 326.513 29.7556 294.046L14.3248 268.333C3.14524 249.705 -1.00058 227.691 2.63681 206.272L6.23327 185.094C11.7057 152.869 -5.2498 111.315 16.1671 86.6228Z" stroke="#8C72B3" stroke-width="3"/>
</g>
<defs>
<clipPath id="clip0_103_10">
<rect width="197" height="568" fill="white"/>
</clipPath>
</defs>
</svg>
