<svg width="272" height="536" viewBox="0 0 272 536" fill="none" xmlns="http://www.w3.org/2000/svg">
<g clip-path="url(#clip0_103_11)">
<path d="M258.018 378.866C213.237 454.665 87.9281 461.879 -52.5826 378.866C-193.093 295.854 -270.698 167.113 -225.917 91.3145C-181.136 15.5162 -48.3709 -48.3923 92.1398 34.6199C232.651 117.632 302.799 303.068 258.018 378.866Z" fill="#6864AE"/>
<path d="M191.626 430.42C198.781 400.804 185.61 335.592 99.6662 245.656C61.0014 205.195 -4.38464 217.774 -32.3152 266.271L-113.509 407.251C-128.61 433.47 -119.264 466.977 -92.7727 481.595C-89.8687 483.198 -86.8235 484.53 -83.6756 485.574L48.6762 529.492C88.0824 542.567 131.343 527.313 153.831 492.412L185.434 443.365C188.045 439.313 190.494 435.105 191.626 430.42Z" stroke="#CEBDAB" stroke-width="3"/>
</g>
<defs>
<clipPath id="clip0_103_11">
<rect width="272" height="536" fill="white"/>
</clipPath>
</defs>
</svg>
