<svg width="303" height="492" viewBox="0 0 303 492" fill="none" xmlns="http://www.w3.org/2000/svg">
<g clip-path="url(#clip0_103_9)">
<path d="M395.427 444.775C359.728 505.201 259.833 510.952 147.82 444.775C35.806 378.599 -26.0594 275.968 9.63937 215.542C45.3382 155.116 151.177 104.169 263.191 170.346C375.204 236.522 431.126 384.35 395.427 444.775Z" fill="#6864AE"/>
<path d="M375.626 210.42C382.782 180.804 369.611 115.592 283.667 25.6561C245.002 -14.805 179.616 -2.22616 151.685 46.2707L70.4911 187.251C55.3909 213.47 64.7369 246.977 91.2277 261.595C94.1317 263.198 97.1769 264.53 100.325 265.574L232.677 309.492C272.083 322.567 315.343 307.313 337.831 272.412L369.435 223.365C372.045 219.313 374.494 215.105 375.626 210.42Z" stroke="#CEBDAB" stroke-width="3"/>
</g>
<defs>
<clipPath id="clip0_103_9">
<rect width="303" height="492" fill="white"/>
</clipPath>
</defs>
</svg>
