<svg width="255" height="533" viewBox="0 0 255 533" fill="none" xmlns="http://www.w3.org/2000/svg">
<g clip-path="url(#clip0_103_4)">
<path d="M242.018 375.866C197.237 451.665 71.9279 458.879 -68.5828 375.866C-209.094 292.854 -286.698 164.113 -241.917 88.3145C-197.136 12.5162 -64.3712 -51.3923 76.1396 31.6199C216.65 114.632 286.799 300.068 242.018 375.866Z" fill="#6864AE"/>
<path d="M175.625 427.42C182.781 397.804 169.609 332.592 83.6655 242.656C45.0006 202.195 -20.3854 214.774 -48.3159 263.271L-129.51 404.251C-144.61 430.47 -135.264 463.977 -108.773 478.595C-105.869 480.198 -102.824 481.53 -99.6763 482.574L32.6755 526.492C72.0816 539.567 115.342 524.313 137.83 489.412L169.434 440.365C172.044 436.313 174.493 432.105 175.625 427.42Z" stroke="#CEBDAB" stroke-width="3"/>
</g>
<defs>
<clipPath id="clip0_103_4">
<rect width="255" height="533" fill="white"/>
</clipPath>
</defs>
</svg>
