<svg width="450" height="532" viewBox="0 0 450 532" fill="none" xmlns="http://www.w3.org/2000/svg">
<g clip-path="url(#clip0_103_6)">
<path d="M-20.0547 422.806C-36.5263 321.69 -10.1197 24.5271 111.438 4.72566C232.995 -15.0758 432.166 11.2959 448.638 112.412C465.11 213.528 340.354 364.096 218.797 383.897C97.2398 403.699 -3.58308 523.922 -20.0547 422.806Z" fill="#C3C2E1"/>
<path d="M249.626 426.42C256.781 396.804 243.61 331.592 157.666 241.656C119.001 201.195 53.6153 213.774 25.6847 262.271L-55.5093 403.251C-70.6096 429.47 -61.2636 462.977 -34.7728 477.595C-31.8688 479.198 -28.8236 480.53 -25.6756 481.574L106.676 525.492C146.082 538.567 189.343 523.313 211.831 488.412L243.434 439.365C246.045 435.313 248.494 431.105 249.626 426.42Z" stroke="#6864AE" stroke-width="3"/>
</g>
<defs>
<clipPath id="clip0_103_6">
<rect width="450" height="532" fill="white"/>
</clipPath>
</defs>
</svg>
